<svg width="230" height="230" viewBox="0 0 230 230" fill="none" xmlns="http://www.w3.org/2000/svg">
  <path d="M164.334 80.2337L172.03 80.0984C168.115 73.1966 162.849 66.9714 156.368 61.6936C141.11 49.3786 122.206 44.9127 104.248 47.89C119.911 47.078 135.844 51.8145 149.076 62.5055C155.287 67.5127 160.418 73.6026 164.334 80.2337Z" fill="#1F1C17" />
  <path d="M85.0743 120.02L77.783 122.456C83.5891 127.869 90.4753 132.2 98.3068 135.312C116.535 142.485 135.979 140.861 152.047 132.741C137.329 138.29 120.721 138.56 104.923 132.335C97.4967 129.358 90.7454 125.163 85.0743 120.02Z" fill="#1F1C17" />
  <path d="M114.375 68.8664C116.4 68.7311 117.345 67.7838 122.746 68.8664C122.746 68.8664 130.038 68.4605 143.135 81.0461C147.051 84.8353 149.211 90.9251 151.372 91.6018C153.127 92.1431 161.634 92.5491 162.174 96.0677C162.579 98.9096 156.773 104.593 149.751 104.052C150.967 102.157 155.017 101.752 157.043 96.7443C154.882 95.391 151.372 95.2557 148.131 96.203C142.055 81.9934 124.097 72.1143 117.885 71.4377C112.754 70.7611 110.864 71.573 107.623 71.4377C109.919 70.6257 113.159 68.8664 114.375 68.8664Z" fill="#1F1C17" />
  <path d="M91.9604 51.6794C94.3909 51.6794 95.201 51.6794 97.6315 53.1681L91.9604 53.7094C91.8254 53.7094 85.2091 55.4687 82.3736 60.8818C83.5888 61.8292 83.4538 62.0998 84.8041 62.0998C86.8294 62.0998 91.5553 55.7393 100.062 55.7393C101.547 55.7393 103.032 56.2806 103.032 56.2806C103.843 56.822 103.573 57.6339 103.573 58.8519C103.573 58.8519 98.1716 71.3022 88.8548 71.3022H86.8294C92.7706 69.9489 97.0914 64.2651 100.197 58.9872L93.9858 60.7465C89.665 61.9645 84.9391 65.889 83.3188 65.889C81.4284 65.889 80.2132 64.2651 75.3523 64.4004C71.5716 64.4004 67.1157 66.4304 65.0904 67.919C66.0355 69.9489 67.9259 69.0016 69.5462 68.8663C69.4112 69.0016 69.0061 70.7609 64.2802 71.1669C64.2802 71.4375 65.2254 75.2268 67.6558 77.6627C70.4914 80.64 75.0822 82.2639 76.5675 82.2639C76.5675 82.9406 76.8376 85.3765 78.5929 88.6244C86.0193 102.969 89.935 91.0603 98.8467 105.405V107.029C94.1208 102.969 86.5594 101.616 82.5086 100.939C76.7025 99.9921 70.7614 100.939 70.6264 100.939C68.601 101.481 62.9299 102.563 62.9299 102.563C67.3858 97.1502 77.9178 97.0148 79.9432 96.2029C72.9218 89.1657 73.867 86.8651 72.9218 85.9178C72.2467 85.1058 62.2548 83.8879 62.2548 69.9489C62.2548 64.9417 71.8416 61.1525 74.9472 61.1525C80.6183 61.2878 82.5086 51.6794 91.9604 51.6794Z" fill="#1F1C17" />
  <path d="M76.8377 66.5656C78.1879 66.4303 77.9179 66.4303 79.6732 67.1069L79.8082 68.8662C77.9179 68.4602 75.4874 68.7309 72.7869 68.5955C74.2722 67.3776 74.6773 66.7009 76.8377 66.5656Z" fill="#1F1C17" />
  <path d="M59.1493 85.3763C63.2001 85.3763 68.196 88.7596 68.7361 89.1656C66.0356 89.3009 65.7656 88.8949 59.6894 89.3009C59.6894 89.3009 54.5584 89.5715 50.6427 90.3835C53.3432 86.5943 52.8031 85.241 59.1493 85.3763Z" fill="#1F1C17" />
  <path d="M136.384 113.119L143 116.232C150.832 120.021 158.123 110.142 160.959 108.247C162.174 114.608 168.385 127.329 177.432 129.764C176.081 131.253 174.596 131.118 172.976 131.118C168.655 131.118 160.418 124.081 160.418 118.532C160.418 118.532 160.148 114.472 160.283 113.525C157.853 118.261 152.722 121.374 148.401 121.374C145.161 121.374 144.35 121.103 141.515 119.885C140.84 119.615 125.312 110.006 124.367 103.375C125.042 103.781 132.873 111.901 136.384 113.119Z" fill="#1F1C17" />
  <path d="M164.064 135.177L161.499 135.583C155.152 134.636 154.072 125.433 155.827 122.862C155.827 122.862 156.908 120.968 157.853 120.02C157.988 124.621 158.528 128.14 158.933 129.087C160.013 131.659 158.123 130.576 164.064 135.177Z" fill="#1F1C17" />
  <path d="M78.458 114.607C80.2133 113.931 82.2387 113.254 83.724 112.442L78.323 110.953C78.188 109.194 78.0529 107.3 77.9179 105.54L74.9473 110.141C73.192 109.6 71.1666 109.194 69.4113 108.788C70.6265 110.277 71.7067 111.63 72.922 113.119C72.1118 114.743 70.8966 116.231 69.9514 117.855L75.0824 115.961L78.7281 120.021" fill="#1F1C17" />
  <path d="M173.921 90.9249C175.271 89.7069 177.026 88.4889 178.242 87.271L172.571 87.5416C171.896 85.9177 171.22 84.1584 170.41 82.5344L169.06 87.8123C167.17 87.9476 165.144 88.0829 163.389 88.2183C165.009 89.1656 166.494 90.1129 167.98 91.1955C167.71 93.0901 167.035 94.8494 166.63 96.6087L170.815 93.0901L175.541 95.7967" fill="#1F1C17" />
  <path d="M165.414 50.1906H163.389V49.3787H168.25V50.326H166.359V55.4685H165.414V50.1906ZM169.06 49.3787H170.545L172.031 54.2505L173.516 49.3787H175.001V55.3332H174.056V50.326L172.571 55.3332H171.625L170.005 50.1906V55.3332H169.06V49.3787Z" fill="#1F1C17" />
  <path d="M67.3859 155.816C68.8712 155.816 71.7067 156.357 71.7067 158.116C71.7067 158.793 71.1666 159.47 70.4915 159.47C69.6813 159.47 69.1412 158.793 67.3859 158.793C64.9554 158.793 63.6052 160.958 63.6052 163.394C63.6052 165.83 64.9554 167.86 67.3859 167.86C69.1412 167.86 69.8163 167.048 70.6265 167.048C71.5717 167.048 71.9767 167.995 71.9767 168.401C71.9767 170.296 68.8712 170.837 67.3859 170.837C63.3351 170.837 60.4996 167.589 60.4996 163.394C60.4996 159.064 63.3351 155.816 67.3859 155.816Z" fill="#1F1C17" />
  <path d="M73.057 161.094C73.057 160.147 73.8671 159.605 74.5423 159.605C75.3524 159.605 75.8925 159.876 75.8925 160.823C76.4326 160.011 76.9727 159.605 77.9179 159.605C78.593 159.605 79.2681 160.147 79.2681 161.094C79.2681 162.041 78.458 162.041 77.5128 162.447C76.7027 162.853 75.7575 163.259 75.7575 164.342V168.808C75.7575 169.755 75.2174 170.432 74.2722 170.432C73.462 170.432 72.7869 169.755 72.7869 168.808V161.094H73.057Z" fill="#1F1C17" />
  <path d="M80.3483 161.229C80.3483 160.282 80.8884 159.605 81.8336 159.605C82.6437 159.605 83.3188 160.282 83.3188 161.229V166.372C83.3188 167.59 84.264 168.266 85.2092 168.266C86.1544 168.266 87.0995 167.59 87.0995 166.372V161.229C87.0995 160.282 87.6396 159.605 88.5848 159.605C89.395 159.605 90.0701 160.282 90.0701 161.229V166.507C90.0701 169.078 88.3148 170.702 85.3442 170.702C82.2386 170.702 80.6183 169.078 80.6183 166.507V161.229H80.3483Z" fill="#1F1C17" />
  <path d="M93.8509 166.101C94.1209 167.589 95.2011 168.131 96.5514 168.131C98.0367 168.131 99.1169 166.913 99.792 166.913C100.467 166.913 101.007 167.589 101.007 168.131C101.007 169.349 98.4417 170.567 96.2813 170.567C93.0407 170.567 90.8803 168.131 90.8803 165.018C90.8803 162.041 93.0407 159.334 96.0113 159.334C99.1169 159.334 101.277 162.176 101.277 164.612C101.277 165.424 100.872 165.965 100.062 165.965H93.8509V166.101ZM98.4417 164.071C98.3067 162.853 97.4966 161.905 96.1463 161.905C94.7961 161.905 93.9859 162.853 93.8509 164.071H98.4417Z" fill="#1F1C17" />
  <path d="M102.763 156.493C102.763 155.545 103.303 154.869 104.248 154.869C105.058 154.869 105.733 155.545 105.733 156.493V168.943C105.733 169.89 105.193 170.567 104.248 170.567C103.438 170.567 102.763 169.89 102.763 168.943V156.493Z" fill="#1F1C17" />
  <path d="M108.569 162.311H107.893C107.083 162.311 106.678 161.77 106.678 161.093C106.678 160.417 107.218 159.875 107.893 159.875H108.569V158.116C108.569 157.169 109.109 156.492 110.054 156.492C110.864 156.492 111.539 157.169 111.539 158.116V159.74H112.349C113.159 159.74 113.7 160.146 113.7 160.958C113.7 161.905 113.024 162.176 112.349 162.176H111.539V168.807C111.539 169.754 110.999 170.431 110.054 170.431C109.244 170.431 108.569 169.754 108.569 168.807V162.311Z" fill="#1F1C17" />
  <path d="M131.658 157.711C131.658 156.899 132.198 156.087 133.278 156.087H138.409C139.354 156.087 139.759 156.763 139.759 157.44C139.759 158.117 139.354 158.793 138.409 158.793H134.764V161.771H137.869C138.814 161.771 139.354 162.447 139.354 163.124C139.354 163.8 138.814 164.477 137.869 164.477H134.764V168.943C134.764 169.89 134.088 170.567 133.278 170.567C132.468 170.567 131.793 170.026 131.793 168.943V157.711H131.658Z" fill="#1F1C17" />
  <path d="M140.435 161.094C140.435 160.147 141.245 159.605 141.92 159.605C142.73 159.605 143.27 159.876 143.27 160.823C143.81 160.011 144.35 159.605 145.296 159.605C145.971 159.605 146.646 160.147 146.646 161.094C146.646 162.041 145.836 162.041 144.89 162.447C144.08 162.853 143.135 163.259 143.135 164.342V168.808C143.135 169.755 142.595 170.432 141.65 170.432C140.84 170.432 140.165 169.755 140.165 168.808V161.094H140.435Z" fill="#1F1C17" />
  <path d="M149.616 166.101C149.751 167.589 150.967 168.266 152.317 168.266C153.802 168.266 154.882 167.048 155.557 167.048C156.233 167.048 156.773 167.725 156.773 168.266C156.773 169.484 154.207 170.702 152.047 170.702C148.806 170.702 146.646 168.266 146.646 165.154C146.646 162.176 148.806 159.47 151.777 159.47C154.882 159.47 157.043 162.312 157.043 164.748C157.043 165.56 156.638 166.101 155.828 166.101H149.616ZM154.072 164.206C153.937 162.988 153.127 162.041 151.777 162.041C150.427 162.041 149.616 162.988 149.481 164.206H154.072Z" fill="#1F1C17" />
  <path d="M160.823 166.101C161.093 167.589 162.174 168.266 163.524 168.266C165.009 168.266 166.089 167.048 166.764 167.048C167.44 167.048 167.98 167.725 167.98 168.266C167.98 169.484 165.414 170.702 163.254 170.702C160.013 170.702 157.853 168.266 157.853 165.154C157.853 162.176 160.013 159.47 162.984 159.47C166.089 159.47 168.25 162.312 168.25 164.748C168.25 165.56 167.845 166.101 167.035 166.101H160.823ZM165.414 164.206C165.279 162.988 164.469 162.041 163.119 162.041C161.769 162.041 160.958 162.988 160.823 164.206H165.414Z" fill="#1F1C17" />
  <path d="M123.016 159.605C122.341 159.605 121.801 160.011 121.531 160.688L119.371 166.101L117.345 160.688C117.075 160.011 116.535 159.605 115.86 159.605C115.32 159.605 114.51 160.147 114.51 160.823C114.51 161.094 114.51 161.365 114.645 161.635L117.885 169.62L117.345 170.973L116.94 171.92C116.805 172.191 116.805 172.462 116.805 172.732C116.805 173.409 117.345 173.95 118.29 173.95C118.966 173.95 119.371 173.409 119.641 172.868L120.451 170.973L124.232 161.5C124.367 161.229 124.367 161.094 124.367 160.688C124.367 160.147 123.691 159.605 123.016 159.605Z" fill="#1F1C17" />
  <path d="M61.1747 182.205V175.168H62.9301V182.205H61.1747Z" fill="#EC008C" />
  <path d="M72.1118 182.205L69.8163 179.769C69.2762 179.228 68.4661 178.28 68.061 177.739C68.061 178.28 68.061 178.551 68.061 178.957V182.07H66.3057V175.032H67.6559L69.5463 177.198C69.9513 177.739 70.6265 178.416 71.0316 178.957C71.0316 178.551 71.0316 178.145 71.0316 177.739V175.032H72.7869V182.07H72.1118V182.205Z" fill="#EC008C" />
  <path d="M79.8083 176.521V182.205H78.188V176.521H76.0276V175.168H81.9687V176.521H79.8083Z" fill="#EC008C" />
  <path d="M84.9393 182.205V175.168H88.99V176.521H86.5596V177.874H88.4499V179.228H86.5596V180.581H89.2601V181.934H84.9393V182.205Z" fill="#EC008C" />
  <path d="M96.6864 182.205L94.796 179.498H94.2559V182.205H92.6356V175.168H95.2011C96.4163 175.168 97.4965 175.98 97.4965 177.333C97.4965 178.145 96.9564 178.822 96.4163 179.092L98.5767 182.205H96.6864ZM94.931 176.521H94.2559V178.145H94.931C95.3361 178.145 95.8762 177.874 95.8762 177.333C95.7412 176.792 95.3361 176.521 94.931 176.521Z" fill="#EC008C" />
  <path d="M106.948 182.205L104.653 179.769C104.113 179.228 103.303 178.28 102.898 177.739C102.898 178.28 102.898 178.551 102.898 178.957V182.07H101.142V175.032H102.493L104.383 177.198C104.788 177.739 105.463 178.416 105.868 178.957C105.868 178.551 105.868 178.145 105.868 177.739V175.032H107.624V182.07H106.948V182.205Z" fill="#EC008C" />
  <path d="M115.725 182.205L115.185 180.716H113.024L112.484 182.205H110.864L113.565 175.168H114.78L117.48 182.205H115.725ZM114.51 178.686C114.375 178.28 114.24 177.739 114.105 177.198C113.97 177.739 113.835 178.28 113.7 178.686L113.43 179.498H114.915L114.51 178.686Z" fill="#EC008C" />
  <path d="M123.016 176.521V182.205H121.396V176.521H119.236V175.168H125.177V176.521H123.016Z" fill="#EC008C" />
  <path d="M128.282 182.205V175.168H130.038V182.205H128.282Z" fill="#EC008C" />
  <path d="M137.059 182.34C135.169 182.34 133.278 180.987 133.278 178.686C133.278 176.521 135.034 175.032 137.059 175.032C138.949 175.032 140.84 176.386 140.84 178.686C140.84 180.987 139.084 182.34 137.059 182.34ZM137.059 176.521C135.979 176.521 135.034 177.333 135.034 178.686C135.034 180.04 135.979 180.852 137.059 180.852C138.139 180.852 139.084 180.04 139.084 178.686C139.084 177.333 138.139 176.521 137.059 176.521Z" fill="#EC008C" />
  <path d="M149.886 182.205L147.591 179.769C147.051 179.228 146.241 178.28 145.836 177.739C145.836 178.28 145.836 178.551 145.836 178.957V182.07H144.08V175.032H145.431L147.321 177.198C147.726 177.739 148.401 178.416 148.806 178.957C148.806 178.551 148.806 178.145 148.806 177.739V175.032H150.562V182.07H149.886V182.205Z" fill="#EC008C" />
  <path d="M158.663 182.205L158.123 180.716H155.963L155.423 182.205H153.802L156.503 175.168H157.718L160.418 182.205H158.663ZM157.448 178.686C157.313 178.28 157.178 177.739 157.043 177.198C156.908 177.739 156.773 178.28 156.638 178.686L156.368 179.498H157.853L157.448 178.686Z" fill="#EC008C" />
  <path d="M163.389 182.205V175.168H165.144V180.716H167.98V182.205H163.389Z" fill="#EC008C" />
</svg>
