<svg width="230" height="230" viewBox="0 0 230 230" fill="none" xmlns="http://www.w3.org/2000/svg">
  <path d="M9.25116 128.935C8.16279 128.753 7.98139 128.391 7.98139 127.121C7.98139 119.865 8.88837 112.791 10.7023 105.898C12.8791 97.1907 15.6 88.6651 19.5907 80.6837C21.9488 75.9674 24.8512 71.614 29.0232 68.3488C29.9302 67.6233 30.8372 66.8977 31.9256 66.3535C34.6465 65.0837 36.4605 65.9907 37.5488 68.7116C38.093 70.3442 38.2744 72.1581 38.2744 73.9721C38.093 78.1442 37.3674 82.1349 36.4605 86.1256C36.4605 86.307 36.4605 86.4884 36.2791 87.0325C37.0046 85.9442 37.7302 85.2186 38.2744 84.493C42.8093 78.6884 47.5256 73.2465 53.3302 68.7116C56.5953 66.1721 60.2232 63.9953 64.0325 62.5442C65.1209 62.1814 66.2093 62 67.2977 62C70.0186 62 71.8325 63.814 72.3767 66.7163C72.7395 69.8 72.1953 72.5209 71.107 75.2419C66.7535 86.8512 60.4046 97.1907 52.4232 106.623C41.1767 120.046 27.9349 130.93 12.3349 139.093C11.9721 139.274 11.6093 139.456 11.4279 140C10.3395 144.353 9.25116 148.707 9.06977 153.242C8.88837 155.6 9.06977 157.777 9.61395 160.135C10.5209 163.581 12.6977 165.033 16.1442 163.944C19.4093 163.037 21.9488 161.223 24.4884 159.228C28.4791 155.781 31.5628 151.791 33.1953 146.712C33.9209 144.535 34.1023 142.358 33.3767 140.181C32.6512 137.642 31.0186 136.735 28.4791 137.642C26.1209 138.367 24.1256 139.819 22.3116 141.451C21.2233 142.358 20.1349 142.721 18.8651 142.177C17.7767 141.814 17.2326 140.544 18.1395 139.637C21.586 136.191 25.3953 133.288 30.4744 132.563C33.5581 132.2 35.9163 133.47 37.186 136.191C38.8186 139.819 38.6372 143.628 37.5488 147.256C35.3721 154.33 30.8372 159.591 25.0326 163.763C21.9488 165.939 18.8651 167.572 15.2372 168.298C11.9721 168.842 8.88837 168.479 6.71163 165.758C5.44186 164.126 4.89767 162.312 4.71628 160.316C4.17209 155.781 4.71628 151.428 5.44186 147.074C5.62325 145.442 5.98604 143.809 6.34884 141.995C5.44186 142.358 4.53488 142.721 3.62791 143.084C2.90232 143.446 2.17674 143.446 1.45116 143.084C0.544186 143.084 0 142.54 0 141.814C0 140.907 0.362791 140.363 1.08837 140C2.17674 139.456 3.08372 138.912 4.35349 138.549C6.71163 137.823 8.34418 136.372 8.70697 133.833C8.70697 133.107 9.06977 132.563 9.25116 132.019C9.43256 131.837 9.43256 131.656 9.61395 131.474C11.2465 127.121 13.0605 122.767 15.2372 118.777C19.9535 109.707 25.5767 101.363 31.7442 93.3814C32.107 92.8372 32.2884 92.4744 32.4698 91.9302C34.2837 86.6698 35.3721 81.2279 35.9163 75.786C36.0977 74.1535 36.2791 72.5209 36.0977 71.0698C35.7349 69.2558 34.8279 68.7116 33.0139 69.4372C31.7442 69.9814 30.6558 70.8884 29.7488 71.7953C25.0326 76.5116 21.586 82.1349 19.2279 88.1209C14.1488 100.819 10.7023 113.879 10.5209 127.665C10.1581 128.209 9.97674 128.753 9.25116 128.935ZM13.4233 133.833C13.6046 133.833 13.786 133.651 13.9674 133.651C27.5721 125.851 39.3628 115.874 49.3395 103.721C56.2325 95.3767 61.8558 86.307 65.6651 76.1488C66.5721 73.6093 67.479 71.0698 67.2977 68.3488C67.2977 66.7163 66.3907 66.1721 64.9395 66.5349C63.8511 66.8977 62.7628 67.4419 61.6744 67.986C57.3209 70.707 53.3302 73.9721 49.7023 77.7814C38.2744 90.1163 28.4791 103.721 19.7721 118.233C17.0512 122.949 14.8744 128.209 13.4233 133.833C13.2419 133.833 13.2419 133.833 13.4233 133.833C13.4233 133.833 13.4233 134.014 13.4233 133.833Z" fill="black" />
  <path d="M9.25146 128.935C9.97704 128.754 10.1584 128.028 10.1584 127.303C10.3398 113.516 13.7863 100.456 18.8654 87.7584C21.4049 81.5909 24.8515 76.1491 29.3863 71.4328C30.2933 70.5258 31.3817 69.6188 32.6515 69.0746C34.4654 68.3491 35.3724 68.8932 35.7352 70.7072C36.098 72.3398 35.7352 73.9723 35.5538 75.4235C35.0096 81.0467 33.9212 86.3072 32.1073 91.5677C31.9259 92.1118 31.7445 92.656 31.3817 93.0188C25.3956 101.182 19.591 109.526 14.8747 118.414C12.698 122.586 10.884 126.758 9.25146 131.112C9.25146 131.293 9.07007 131.475 8.88867 131.656C9.07007 130.93 9.43286 130.023 9.25146 128.935Z" fill="#F5ACCB" />
  <path d="M94.5074 158.684C103.759 158.684 113.191 158.684 122.442 158.684C122.986 158.684 123.531 158.684 123.349 159.409C123.349 159.772 123.168 160.135 122.805 159.953C122.624 159.953 122.442 159.953 122.261 159.953C103.759 159.953 85.2562 159.953 66.5725 159.953C66.2097 159.953 65.6655 160.316 65.4841 159.591C65.3027 158.865 65.4841 158.684 66.3911 158.684C75.8236 158.684 85.2562 158.684 94.5074 158.684Z" fill="#F5ACCB" />
  <path d="M198.265 158.684C207.516 158.684 216.949 158.684 226.2 158.684C226.744 158.684 227.288 158.684 227.107 159.409C227.107 159.772 226.926 160.135 226.563 159.953C226.381 159.953 226.2 159.953 226.019 159.953C207.516 159.953 189.014 159.953 170.33 159.953C169.968 159.953 169.423 160.316 169.242 159.591C169.061 158.865 169.242 158.684 170.149 158.684C179.581 158.684 189.014 158.684 198.265 158.684Z" fill="#F5ACCB" />
  <path d="M155.093 165.032C155.818 163.4 156.544 161.767 157.269 160.316C158.358 157.958 159.627 155.6 160.716 153.242C160.897 152.697 161.26 152.516 161.804 152.516C162.711 152.516 163.981 152.153 164.525 152.697C165.069 153.242 164.707 154.511 164.707 155.418C164.707 158.502 164.707 161.404 164.707 164.488C164.707 165.032 164.525 165.395 163.981 165.214C163.8 165.214 163.8 165.214 163.618 165.214C162.167 165.214 162.167 165.214 161.986 163.762C161.986 163.581 161.986 163.4 161.804 163.4C161.079 163.4 160.172 163.4 159.446 163.4C158.902 163.4 158.902 163.762 158.902 164.125C158.539 165.214 157.995 165.576 156.907 165.395C156.362 165.032 155.637 165.032 155.093 165.032ZM161.986 157.232C161.804 157.232 161.804 157.232 161.986 157.232C161.26 158.321 160.897 159.228 160.353 160.316C161.986 160.497 161.986 160.497 161.986 158.865C161.986 158.502 161.986 157.958 161.986 157.232Z" fill="black" />
  <path d="M129.697 165.032C130.786 161.042 131.874 157.051 132.962 153.06C132.962 152.698 133.144 152.516 133.507 152.516C134.958 152.516 136.227 152.335 137.679 152.516C139.493 152.698 140.4 153.967 140.4 155.6C140.4 158.684 138.404 160.679 135.502 160.86C133.688 160.86 133.688 160.86 133.144 162.674C132.6 165.214 132.6 165.214 129.697 165.032ZM137.497 155.963C137.497 155.6 137.497 155.418 137.134 155.237C136.409 154.693 135.321 155.056 135.139 155.963C134.958 156.507 134.776 157.232 134.595 157.958C134.414 158.502 134.595 158.502 135.139 158.502C136.409 158.321 137.497 157.232 137.497 155.963Z" fill="black" />
  <path d="M149.651 155.237C149.832 154.33 150.195 153.604 150.376 152.879C150.558 152.516 150.739 152.516 151.102 152.516C153.46 152.516 155.818 152.516 158.176 152.516C158.721 152.516 158.721 152.698 158.721 153.242C158.176 155.237 158.176 155.418 156.181 155.418C155.637 155.418 155.455 155.781 155.274 156.144C154.548 158.865 153.642 161.767 152.916 164.488C152.735 165.214 152.553 165.395 151.828 165.214H151.646C149.651 165.214 149.651 165.214 150.195 163.218C150.921 160.86 151.465 158.502 152.19 156.144C152.372 155.6 152.372 155.237 151.646 155.418C150.921 155.237 150.376 155.237 149.651 155.237Z" fill="black" />
  <path d="M147.293 161.405C146.748 163.4 144.209 165.214 142.214 165.033C141.125 164.851 140.581 164.307 140.4 163.4C140.037 162.312 140.037 161.223 140.218 160.135C140.762 157.233 142.214 155.056 144.572 153.242C145.479 152.516 146.567 152.335 147.655 152.516C148.925 152.698 149.651 153.786 149.288 155.056C149.107 155.963 148.562 156.507 147.837 157.051C146.386 157.958 144.935 158.321 143.483 158.684C142.939 158.865 142.576 159.047 142.576 159.591C142.395 160.498 142.395 161.405 142.576 162.13C142.939 163.4 143.665 163.763 144.935 163.4C145.842 163.219 146.386 162.674 146.93 161.949C146.748 161.768 146.93 161.405 147.293 161.405ZM142.758 158.14C143.665 157.958 144.39 157.777 144.935 157.414C146.204 156.87 147.111 155.963 147.655 154.693C147.837 154.149 147.655 153.423 147.111 153.061C146.567 152.698 146.023 152.698 145.479 153.242C145.116 153.605 144.753 153.968 144.572 154.33C143.846 155.419 143.302 156.688 142.758 158.14Z" fill="black" />
  <path d="M28.6601 146.893C28.6601 148.707 27.3904 150.158 25.7578 150.158C24.1252 150.158 22.8555 148.707 22.8555 146.893C22.8555 145.079 24.1252 143.628 25.7578 143.628C27.3904 143.628 28.6601 145.079 28.6601 146.893Z" fill="black" />
  <path d="M164.526 92.655C164.163 93.0178 163.982 93.3806 163.982 93.562C161.261 99.548 158.54 105.353 155.638 111.339C155.456 111.702 155.275 112.064 154.731 112.064C154.186 112.064 154.005 111.702 153.824 111.339C150.921 104.99 147.838 98.8224 144.935 92.4736C144.754 92.4736 144.754 92.655 144.754 92.8364C144.754 97.5527 144.754 102.45 144.754 107.167C144.754 107.348 144.754 107.348 144.754 107.529C144.754 109.525 145.479 110.432 147.475 110.432C148.382 110.432 148.2 110.976 148.2 111.52C148.2 112.246 148.019 112.246 147.475 112.246C144.935 112.246 142.396 112.246 139.856 112.246C139.131 112.246 139.131 112.064 139.131 111.52C139.131 111.157 138.949 110.613 139.856 110.613C142.033 110.613 142.577 109.888 142.758 107.711C142.758 102.45 142.758 97.3713 142.758 92.1108C142.758 90.1155 142.214 89.3899 140.038 89.3899C139.131 89.3899 139.312 88.8457 139.131 88.3015C139.131 87.5759 139.493 87.5759 140.038 87.5759C142.577 87.5759 144.935 87.5759 147.475 87.5759C148.2 87.5759 148.382 87.7573 148.563 88.3015C150.921 93.562 153.461 98.641 155.819 103.902C156 104.264 156.182 104.446 156.363 104.99C158.358 100.636 160.535 96.2829 162.531 91.9294C163.075 90.6596 163.8 89.3899 164.345 88.1201C164.526 87.7573 164.707 87.5759 165.07 87.5759C167.61 87.5759 170.149 87.5759 172.689 87.5759C173.233 87.5759 173.414 87.7573 173.233 88.3015C173.233 88.6643 173.414 89.2085 172.507 89.3899C170.149 89.3899 169.605 90.1155 169.605 92.4736C169.605 97.3713 169.605 102.45 169.605 107.348C169.605 109.706 170.149 110.432 172.507 110.432C173.414 110.432 173.052 110.976 173.052 111.52C173.052 112.064 173.052 112.246 172.507 112.246C168.879 112.246 165.07 112.246 161.442 112.246C160.898 112.246 160.717 112.064 160.717 111.52C160.717 111.157 160.354 110.432 161.261 110.432C161.805 110.432 162.349 110.432 162.712 110.25C163.438 110.069 163.982 109.525 163.982 108.799C163.982 108.436 164.163 108.074 164.163 107.711C164.163 102.995 164.163 98.2783 164.163 93.562C164.526 93.1992 164.526 93.0178 164.526 92.655Z" fill="black" />
  <path d="M115.731 104.083C115.731 103.357 115.731 102.813 115.731 102.269C115.731 98.8226 115.731 95.3761 115.731 92.1109C115.731 90.1156 115.005 89.39 113.01 89.39C112.103 89.39 112.284 88.8458 112.284 88.3016C112.103 87.5761 112.647 87.5761 113.01 87.5761C115.549 87.5761 118.089 87.5761 120.628 87.5761C121.172 87.5761 121.535 87.7575 121.354 88.3016C121.354 88.8458 121.535 89.39 120.628 89.39C120.084 89.39 119.54 89.39 119.177 89.5714C118.452 89.7528 117.907 90.297 117.907 91.0226C117.907 91.5668 117.907 92.2923 117.907 93.0179C117.907 99.1854 117.907 105.171 117.907 111.339C117.907 111.702 118.27 112.246 117.726 112.427C117.182 112.609 116.456 112.79 115.912 112.064C113.735 109.525 111.558 106.804 109.382 104.264C106.479 100.818 103.577 97.5528 100.856 94.1063C100.675 93.9249 100.675 93.7435 100.312 93.7435C100.131 93.9249 100.131 94.2877 100.131 94.4691C100.131 98.6412 100.131 102.813 100.131 106.804C100.131 106.985 100.131 107.167 100.131 107.348C100.131 109.888 100.675 110.432 103.214 110.613C104.121 110.613 103.759 111.157 103.759 111.52C103.759 111.883 103.759 112.246 103.214 112.246C100.493 112.246 97.7725 112.246 95.2329 112.246C94.5073 112.246 94.6887 111.883 94.6887 111.52C94.6887 111.157 94.5073 110.613 95.2329 110.613C95.5957 110.613 95.9585 110.613 96.3213 110.432C97.5911 110.25 97.9538 109.706 97.9538 108.437C98.1352 106.623 98.1352 104.809 98.1352 102.995C98.1352 99.5481 98.3166 95.9202 98.1352 92.4737C97.9538 90.4784 97.4097 89.7528 95.4143 89.39C94.3259 89.2086 94.8701 88.6644 94.6887 88.1202C94.6887 87.3947 95.2329 87.5761 95.5957 87.5761C97.4097 87.5761 99.405 87.5761 101.219 87.5761C101.763 87.5761 102.126 87.7575 102.489 88.1202C106.661 93.1993 111.014 98.2784 115.368 103.357C115.368 103.539 115.549 103.72 115.731 104.083Z" fill="black" />
  <path d="M194.819 112.246C193.186 112.246 191.554 112.246 189.74 112.246C189.196 112.246 188.833 112.246 189.014 111.52C189.014 110.976 188.833 110.432 189.74 110.432H189.921C191.735 110.251 192.279 109.706 191.554 107.892C191.191 106.985 191.01 105.897 190.465 105.353C189.74 104.809 188.651 105.172 187.744 105.172C186.293 105.172 184.661 105.172 183.21 105.172C183.028 105.172 182.665 104.99 182.484 105.534C182.121 106.623 181.577 107.53 181.577 108.618C181.577 109.706 181.94 110.069 183.391 110.251C183.754 110.251 184.117 110.069 184.298 110.432C184.479 110.795 184.298 111.339 184.298 111.702C184.298 112.065 183.935 111.883 183.754 111.883C181.396 111.883 178.856 111.883 176.498 111.883C176.135 111.883 175.772 111.883 175.954 111.339C176.135 110.976 175.591 110.251 176.498 110.251C177.768 110.069 178.493 109.525 179.037 108.437C179.763 107.348 180.126 106.26 180.67 104.99C182.847 99.1855 185.024 93.3808 187.2 87.5762C187.382 87.032 187.744 86.8506 188.289 86.8506C189.014 86.8506 189.196 87.032 189.558 87.5762C192.098 94.1064 194.637 100.637 197.177 107.167C197.358 107.53 197.54 107.892 197.721 108.255C198.265 109.344 198.991 110.069 200.261 110.069C201.349 110.069 200.624 110.795 200.805 111.339C200.986 111.883 200.624 111.883 200.261 111.883C198.265 112.246 196.451 112.246 194.819 112.246ZM186.293 95.0134C185.205 97.9157 184.298 100.455 183.21 102.995C183.028 103.539 183.391 103.539 183.754 103.539C185.568 103.539 187.2 103.539 189.014 103.539C189.74 103.539 189.74 103.358 189.377 102.813C188.47 100.274 187.382 97.7343 186.293 95.0134Z" fill="black" />
  <path d="M86.5259 112.246C84.8933 112.246 83.2608 112.246 81.4468 112.246C80.9026 112.246 80.5398 112.065 80.7212 111.52C80.7212 111.158 80.5398 110.613 81.4468 110.432C83.8049 110.432 83.9863 109.888 83.2608 107.711C82.3538 105.353 82.3538 105.353 79.6329 105.353C78.0003 105.353 76.5491 105.353 74.9166 105.353C74.3724 105.353 74.191 105.534 74.0096 105.897C73.8282 106.623 73.4654 107.167 73.284 107.892C72.7398 109.525 73.284 110.251 74.9166 110.432C75.2794 110.432 75.6422 110.251 75.8236 110.613C76.0049 110.976 75.8236 111.52 75.8236 111.883C75.8236 112.246 75.4608 112.065 75.2794 112.065C72.7398 112.065 70.3817 112.065 67.8422 112.065C67.4794 112.065 67.298 111.883 67.298 111.52C67.4794 111.158 66.9352 110.432 67.6608 110.432C69.2933 110.251 70.0189 109.344 70.7445 108.074C72.0143 105.716 72.7398 102.995 73.8282 100.637C75.4608 96.4645 77.0933 92.2924 78.5445 88.1204C78.7259 87.5762 78.9073 87.2134 79.6329 87.2134C80.3584 87.2134 80.7212 87.3948 80.9026 88.1204C83.4422 94.6506 85.9817 101.181 88.5212 107.711C89.0654 109.344 89.791 110.613 91.7863 110.795C92.3305 110.795 91.9677 111.52 92.1491 112.065C92.3305 112.609 91.9677 112.609 91.6049 112.609C89.9724 112.246 88.3398 112.246 86.5259 112.246ZM78.1817 95.0134C77.0933 97.9157 76.0049 100.637 74.9166 103.539C77.0933 103.539 78.9073 103.539 80.9026 103.539C81.2654 103.539 81.4468 103.539 81.2654 102.995C80.3584 100.455 79.2701 97.7343 78.1817 95.0134Z" fill="black" />
  <path d="M213.865 112.246C210.419 112.246 206.972 112.246 203.707 112.246C203.163 112.246 202.8 112.246 202.982 111.521C202.982 110.976 202.8 110.432 203.707 110.432C206.065 110.432 206.61 109.707 206.61 107.349C206.61 102.269 206.61 97.1904 206.61 92.2927C206.61 89.9346 206.065 89.3904 203.707 89.3904C202.8 89.3904 202.982 88.8462 202.982 88.4834C202.982 87.9392 202.982 87.7578 203.707 87.7578C207.335 87.7578 211.145 87.7578 214.772 87.7578C215.317 87.7578 215.498 87.9392 215.498 88.4834C215.498 88.8462 215.861 89.5718 214.954 89.5718C214.591 89.5718 214.41 89.5718 214.047 89.5718C212.596 89.9346 212.052 90.2973 212.052 91.9299C212.052 97.1904 212.052 102.632 212.052 107.893C212.052 109.525 212.777 110.251 214.41 110.251C215.861 110.432 217.493 110.251 218.945 110.069C221.303 109.707 222.935 107.893 223.479 105.172C223.479 104.809 223.298 104.083 224.205 104.083C225.112 104.083 225.293 104.265 225.293 105.172C225.112 107.349 225.112 109.525 225.112 111.521C225.112 112.065 224.931 112.246 224.386 112.246C220.758 112.246 217.312 112.246 213.865 112.246Z" fill="black" />
  <path d="M181.94 132.562C183.391 133.469 184.117 134.739 185.024 136.009C185.749 137.097 186.475 138.004 187.019 139.092C187.382 139.637 187.926 140.181 188.651 140.362C189.377 140.362 189.377 140.725 189.377 141.269C189.377 141.995 188.833 141.632 188.47 141.632C187.563 141.632 186.656 141.632 185.568 141.632C184.479 141.813 183.935 141.269 183.391 140.544C182.303 138.73 181.033 136.916 179.945 134.92C179.038 133.288 177.768 133.288 176.135 133.288C175.591 133.288 175.772 133.651 175.772 134.013C175.772 135.465 175.772 136.916 175.772 138.367C175.772 139.818 176.317 140.181 177.586 140.362C178.131 140.362 178.493 140.362 178.493 141.088C178.493 141.813 177.949 141.632 177.586 141.632C175.047 141.632 172.507 141.632 169.968 141.632C169.605 141.632 169.061 141.813 169.242 141.088C169.242 140.544 169.424 140.362 169.968 140.362C171.419 140.362 171.963 139.818 171.963 138.367C171.963 134.376 171.963 130.385 171.963 126.395C171.963 124.944 171.419 124.581 170.149 124.399C169.605 124.399 169.424 124.399 169.424 123.674C169.424 122.948 169.786 122.948 170.331 122.948C174.14 122.767 177.949 122.585 181.577 123.13C182.847 123.311 183.935 123.855 184.842 124.944C186.656 127.12 186.112 130.204 183.754 131.474C183.21 132.018 182.665 132.199 181.94 132.562ZM175.954 128.027C175.954 128.39 175.954 128.753 175.954 129.116C175.954 130.023 175.591 131.292 176.135 131.655C177.042 132.199 178.312 131.837 179.4 131.474C179.582 131.474 179.582 131.474 179.763 131.292C180.67 130.93 181.396 130.385 181.577 129.478C181.758 128.571 181.758 127.846 181.577 126.939C181.396 125.851 180.851 125.306 179.945 124.944C178.856 124.581 177.768 124.399 176.498 124.399C176.135 124.399 176.135 124.581 176.135 124.944C175.954 125.851 175.954 126.939 175.954 128.027Z" fill="black" />
  <path d="M130.061 112.246C128.247 112.246 126.433 112.246 124.619 112.246C124.075 112.246 123.712 112.427 123.712 111.52C123.712 110.976 123.53 110.25 124.437 110.432C124.8 110.432 125.163 110.432 125.526 110.25C126.796 110.069 127.158 109.525 127.158 108.255C127.158 106.622 127.158 105.171 127.158 103.539C127.158 99.7294 127.158 96.1015 127.158 92.2922C127.158 89.9341 126.614 89.2085 124.256 89.2085C123.349 89.2085 123.712 88.6643 123.53 88.3015C123.53 87.7573 123.53 87.5759 124.256 87.5759C128.065 87.5759 131.693 87.5759 135.503 87.5759C136.228 87.5759 136.228 87.9387 136.228 88.3015C136.228 88.8457 136.41 89.3899 135.503 89.2085C135.14 89.2085 134.777 89.2085 134.233 89.3899C132.963 89.7527 132.6 90.1155 132.6 91.3852C132.6 93.1992 132.6 95.0131 132.6 96.8271C132.6 100.274 132.6 103.902 132.6 107.348C132.6 109.706 133.144 110.25 135.503 110.432C136.41 110.432 136.228 110.976 136.228 111.52C136.41 112.246 135.865 112.246 135.503 112.246C133.689 112.246 131.875 112.246 130.061 112.246Z" fill="black" />
  <path d="M198.991 141.632C196.451 141.632 194.093 141.632 191.554 141.632C191.191 141.632 190.647 141.813 190.828 141.087C190.828 140.543 191.01 140.362 191.554 140.362C193.005 140.362 193.549 139.818 193.549 138.366C193.549 134.376 193.549 130.204 193.549 126.213C193.549 124.943 193.005 124.399 191.735 124.399C191.191 124.399 190.828 124.218 190.828 123.673C190.828 122.948 191.372 123.129 191.735 123.129C196.27 123.129 200.805 123.129 205.521 123.129C206.247 123.129 206.428 123.311 206.428 123.855C206.428 124.943 206.61 126.032 206.61 127.12C206.61 127.301 206.791 127.846 206.247 127.846C205.884 127.846 205.34 128.027 205.158 127.301C205.158 126.939 204.977 126.757 204.796 126.394C204.251 125.306 203.707 124.58 202.438 124.58C200.986 124.58 199.535 124.58 197.903 124.58C197.54 124.58 197.358 124.762 197.358 125.125C197.358 126.939 197.358 128.753 197.358 130.566C197.358 130.929 197.54 131.111 197.903 131.111C198.447 131.111 198.991 131.111 199.535 131.111C200.986 131.111 201.349 130.929 201.531 129.297C201.712 128.571 202.075 128.753 202.438 128.753C202.982 128.753 202.982 129.115 202.982 129.478C202.982 131.111 202.982 132.743 202.982 134.376C202.982 134.739 202.982 135.101 202.438 134.92C202.075 134.92 201.712 135.101 201.531 134.376C201.349 132.743 200.986 132.562 199.354 132.562C197.177 132.562 197.177 132.562 197.177 134.739C197.177 136.008 197.177 137.278 197.177 138.366C197.177 139.273 197.721 139.818 198.628 139.818C200.079 139.999 201.531 140.18 202.982 139.636C204.796 139.092 205.34 137.641 205.703 136.008C205.703 135.646 205.703 135.283 206.247 135.283C206.791 135.283 207.154 135.464 206.972 136.008C206.972 137.46 206.791 139.092 206.972 140.543C206.972 141.269 206.791 141.45 206.065 141.45C204.07 141.632 201.531 141.632 198.991 141.632Z" fill="black" />
  <path d="M94.6887 141.632C92.1491 141.632 89.791 141.632 87.2515 141.632C86.8887 141.632 86.5259 141.813 86.5259 141.087C86.5259 140.543 86.7073 140.362 87.2515 140.362C88.7026 140.362 89.2468 139.818 89.2468 138.366C89.2468 134.376 89.2468 130.566 89.2468 126.576C89.2468 125.125 88.7026 124.58 87.2515 124.58C86.5259 124.58 86.5259 124.399 86.5259 123.673C86.5259 122.948 87.0701 123.129 87.4329 123.129C91.9677 123.129 96.684 123.129 101.219 123.129C101.763 123.129 101.944 123.311 101.944 123.855C101.944 124.943 102.126 126.213 102.126 127.301C102.126 127.664 102.307 127.846 101.763 127.846C101.4 127.846 100.856 128.027 100.856 127.483C100.312 124.762 98.498 124.399 96.1398 124.58C95.2329 124.58 93.9631 124.218 93.4189 124.762C92.8747 125.306 93.2375 126.576 93.2375 127.483C93.2375 128.571 93.2375 129.478 93.2375 130.566C93.2375 131.111 93.2375 131.292 93.9631 131.292C94.5073 131.292 94.8701 131.292 95.4142 131.292C97.0468 131.292 97.2282 130.929 97.591 129.478C97.7724 128.753 98.1352 128.934 98.498 128.934C98.8608 128.934 99.0421 129.115 99.0421 129.478C99.0421 131.111 99.0421 132.925 99.0421 134.557C99.0421 134.92 98.8608 135.101 98.498 135.101C98.1352 135.101 97.7724 135.283 97.7724 134.557C97.591 132.925 97.2282 132.743 95.777 132.743C93.6003 132.743 93.6003 132.743 93.6003 134.739C93.6003 136.008 93.6003 137.097 93.6003 138.366C93.6003 139.273 93.9631 139.999 95.0515 139.999C96.5026 140.18 97.9538 140.362 99.4049 139.818C101.037 139.273 101.763 137.822 102.126 136.19C102.126 135.827 102.126 135.464 102.67 135.464C103.214 135.464 103.758 135.464 103.577 136.371C103.396 137.822 103.396 139.455 103.396 140.906C103.396 141.45 103.214 141.632 102.67 141.632C99.7677 141.632 97.2282 141.632 94.6887 141.632Z" fill="black" />
  <path d="M218.219 141.632C215.679 141.632 213.14 141.632 210.6 141.632C210.238 141.632 209.875 141.632 209.875 141.088C209.875 140.725 209.875 140.362 210.6 140.362C212.233 140.181 212.596 139.818 212.596 138.186C212.596 134.376 212.596 130.567 212.596 126.758C212.596 125.125 212.233 124.581 210.6 124.581C209.875 124.581 209.875 124.218 209.875 123.855C209.875 123.311 210.238 123.311 210.6 123.311C215.317 123.311 220.033 123.311 224.568 123.311C225.112 123.311 225.293 123.493 225.293 124.037C225.293 125.125 225.475 126.395 225.475 127.483C225.475 127.846 225.656 128.209 225.112 128.209C224.749 128.209 224.205 128.39 224.205 127.846C223.661 125.125 221.665 124.762 219.307 124.944C218.582 124.944 218.038 124.944 217.312 124.944C216.768 124.944 216.405 124.944 216.405 125.669C216.405 127.302 216.405 129.116 216.405 130.748C216.405 131.293 216.586 131.474 217.131 131.474C217.675 131.474 218.038 131.474 218.582 131.474C220.033 131.474 220.396 131.111 220.577 129.66C220.577 128.935 221.121 129.116 221.484 129.116C221.847 129.116 222.028 129.297 222.028 129.66C222.028 131.293 222.028 133.107 222.028 134.739C222.028 135.102 221.847 135.283 221.484 135.283C221.121 135.283 220.758 135.465 220.758 134.739C220.577 133.107 220.214 132.925 218.582 132.925C216.586 132.925 216.586 132.925 216.586 134.921C216.586 136.19 216.586 137.46 216.586 138.548C216.586 139.455 217.131 140 218.038 140.181C219.489 140.362 220.94 140.544 222.391 140C224.024 139.455 224.749 138.186 225.112 136.553C225.112 136.19 224.931 135.646 225.656 135.646C226.2 135.646 226.745 135.465 226.745 136.372C226.563 137.823 226.563 139.455 226.563 141.088C226.563 141.632 226.382 141.814 225.838 141.814C223.298 141.632 220.758 141.632 218.219 141.632Z" fill="black" />
  <path d="M108.475 139.455C108.293 139.818 108.112 140.181 108.112 140.544C108.112 141.269 107.568 141.269 107.024 141.269C106.298 141.269 106.661 140.725 106.661 140.362C106.661 138.73 106.661 137.279 106.661 135.646C106.661 135.283 106.479 134.92 107.024 134.92C107.568 134.92 107.93 134.739 108.112 135.465C108.475 136.916 109.2 138.186 110.289 139.274C111.558 140.362 112.828 140.544 114.279 140.181C115.186 140 115.912 139.274 116.093 138.186C116.275 137.097 116.093 136.19 115.186 135.465C114.279 134.92 113.372 134.376 112.465 134.014C111.196 133.469 109.926 132.744 108.837 132.018C106.479 130.023 105.935 127.665 107.205 125.307C108.656 122.948 111.74 122.041 114.279 123.13C115.186 123.493 115.912 124.037 116.637 124.762C116.819 124.581 117 124.218 117 124.037C117 123.311 117.544 123.311 118.089 123.311C118.814 123.311 118.451 123.855 118.451 124.218C118.451 125.488 118.451 126.758 118.451 127.846C118.451 128.027 118.633 128.572 118.089 128.572C117.726 128.572 117.182 128.753 117 128.209C116.819 127.483 116.456 126.758 115.912 126.032C114.824 124.581 113.372 124.037 111.558 124.4C109.744 124.762 109.2 126.758 110.47 128.209C111.014 128.753 111.74 129.116 112.465 129.479C113.917 130.204 115.549 130.93 117 131.655C119.721 133.288 120.628 135.465 119.721 138.004C118.633 140.725 116.093 142.358 113.191 141.814C111.196 141.632 110.47 141.269 108.475 139.455Z" fill="black" />
  <path d="M159.265 122.948C161.442 122.948 163.8 122.948 165.977 122.948C166.521 122.948 166.884 123.13 166.884 123.674C166.884 124.762 166.884 126.032 167.065 127.12C167.065 127.483 167.065 127.665 166.703 127.665C166.34 127.665 165.796 127.846 165.796 127.302C165.251 124.581 163.437 124.037 161.079 124.218C160.172 124.218 159.084 123.855 158.54 124.4C157.996 124.944 158.358 126.032 158.358 126.939C158.358 128.027 158.358 129.116 158.358 130.204C158.358 130.748 158.54 130.748 158.903 130.748C159.447 130.748 159.81 130.748 160.354 130.748C161.624 130.567 161.986 130.386 162.168 129.116C162.168 128.572 162.531 128.572 163.075 128.572C163.619 128.572 163.619 128.753 163.619 129.297C163.619 130.93 163.619 132.562 163.619 134.195C163.619 134.558 163.619 134.92 163.075 134.739C162.712 134.739 162.349 134.92 162.168 134.195C161.986 132.562 161.624 132.381 159.991 132.381C158.358 132.381 158.358 132.381 158.358 134.013C158.358 135.283 158.358 136.553 158.358 137.823C158.358 139.455 158.721 140 160.535 140C161.261 140 161.442 140.181 161.442 140.907C161.442 141.269 161.261 141.269 160.898 141.269C157.996 141.269 155.275 141.269 152.372 141.269C152.01 141.269 151.828 141.088 151.828 140.725C151.828 140.362 151.647 140 152.191 140C154.368 139.637 154.368 139.455 154.368 137.279C154.368 133.651 154.368 129.841 154.368 126.213C154.368 124.581 154.005 124.037 152.372 124.037C151.647 124.037 151.828 123.674 151.647 123.13C151.647 122.404 152.01 122.586 152.372 122.586C154.731 122.948 157.089 122.948 159.265 122.948Z" fill="black" />
  <path d="M131.875 122.948C134.596 122.948 137.498 122.948 140.219 122.948C140.944 122.948 141.126 123.13 141.126 123.855C141.126 125.125 141.126 126.395 141.126 127.665C141.126 128.027 141.126 128.39 140.582 128.209C140.219 128.209 139.675 128.39 139.675 127.665C139.675 127.302 139.493 126.939 139.493 126.576C139.131 125.306 138.224 124.581 136.954 124.399C133.87 124.037 133.87 124.037 133.87 126.939C133.87 130.385 133.87 134.013 133.87 137.46C133.87 139.455 134.051 139.637 136.047 139.999C136.591 139.999 136.591 140.362 136.591 140.725C136.591 141.088 136.41 141.269 136.047 141.269C133.326 141.269 130.605 141.269 127.884 141.269C127.521 141.269 127.34 141.269 127.34 140.725C127.34 140.362 127.158 139.999 127.884 139.818C129.879 139.455 130.061 139.274 130.061 137.278C130.061 133.106 130.061 129.116 130.061 124.944C130.061 124.218 129.879 124.037 129.154 124.037C128.61 124.037 127.884 124.037 127.34 124.037C125.344 124.218 124.256 124.944 124.075 127.12C124.075 127.846 123.712 127.846 123.168 127.846C122.442 127.846 122.624 127.483 122.624 127.12C122.624 125.851 122.624 124.581 122.624 123.311C122.624 122.767 122.805 122.585 123.349 122.585C126.251 122.948 129.154 122.948 131.875 122.948Z" fill="black" />
  <path d="M75.098 122.948C77.8189 122.948 80.5398 122.948 83.2608 122.948C83.9863 122.948 84.1677 122.948 84.1677 123.855C84.1677 125.125 84.1677 126.395 84.1677 127.665C84.1677 128.027 84.1677 128.39 83.6236 128.209C83.2608 128.209 82.7166 128.39 82.7166 127.665C82.7166 127.302 82.5352 126.939 82.3538 126.395C81.991 125.125 81.2654 124.399 79.9956 124.399C79.0887 124.399 78.1817 124.399 77.2747 124.399C76.9119 124.399 76.7305 124.581 76.7305 124.944C76.7305 129.478 76.7305 134.013 76.7305 138.548C76.7305 139.637 77.2747 139.999 78.5445 140.181C79.0887 140.181 79.4515 140.181 79.4515 140.906C79.4515 141.632 78.9073 141.451 78.5445 141.451C76.0049 141.451 73.4654 141.451 70.9259 141.451C70.5631 141.451 70.0189 141.632 70.2003 140.906C70.2003 140.362 70.3817 140.181 70.9259 140.181C72.377 140.181 72.9212 139.637 72.9212 138.185C72.9212 133.832 72.9212 129.478 72.9212 125.306C72.9212 124.762 72.7398 124.581 72.1956 124.581C71.6515 124.581 70.9259 124.581 70.3817 124.581C68.205 124.581 67.298 125.488 66.9352 127.665C66.9352 128.209 66.5724 128.39 66.0282 128.39C65.3026 128.39 65.484 128.027 65.484 127.665C65.484 126.395 65.484 125.125 65.484 123.855C65.484 123.311 65.6654 123.13 66.2096 123.13C69.4747 122.948 72.377 122.948 75.098 122.948Z" fill="black" />
  <path d="M145.479 134.558C146.568 134.558 147.475 134.558 148.563 134.558C149.107 134.558 149.289 134.92 149.107 135.283C148.926 136.009 149.833 137.279 148.563 137.279C146.386 137.46 144.21 137.279 142.214 137.279C142.033 137.279 141.67 137.279 141.67 137.097C141.67 136.372 141.67 135.465 141.67 134.558C141.67 134.376 142.033 134.376 142.214 134.376C143.303 134.558 144.391 134.558 145.479 134.558Z" fill="black" />
  <path d="M13.2422 133.651C14.8747 128.209 17.0515 122.949 19.9538 118.051C28.4794 103.54 38.4561 90.1163 49.884 77.6C53.3305 73.7907 57.3212 70.5256 61.8561 67.8047C62.9445 67.2605 63.8515 66.5349 65.1212 66.3535C66.5724 65.9907 67.4794 66.5349 67.4794 68.1675C67.6608 70.8884 66.7538 73.4279 65.8468 75.9675C62.0375 86.1256 56.4143 95.1954 49.5212 103.54C39.5445 115.693 27.7538 125.67 14.1492 133.47C13.9678 133.651 13.605 133.651 13.2422 133.651C13.4236 133.651 13.4236 133.833 13.2422 133.651Z" fill="#F5ACCB" />
  <path d="M13.4232 133.833C13.4232 133.833 13.4232 134.014 13.4232 133.833C13.2418 133.833 13.2418 133.833 13.4232 133.833C13.4232 133.833 13.4232 133.651 13.4232 133.833Z" fill="#F5ACCB" />
</svg>
