<svg width="230" height="230" viewBox="0 0 230 230" fill="none" xmlns="http://www.w3.org/2000/svg">
  <path d="M73.2834 158.051C43.8653 152.411 25.4219 131.376 25.4219 103.178C25.4219 88.3926 31.214 74.522 41.7314 64.1571C52.2487 53.6397 66.1194 48 80.9046 48C111.39 48 136.235 72.8453 136.235 103.33C136.235 115.677 133.034 123.755 127.242 134.12L126.175 133.51C131.967 123.298 135.016 115.372 135.016 103.33C134.863 73.6074 110.628 49.3718 80.9046 49.3718C51.0293 49.3718 26.6413 73.6074 26.6413 103.33C26.6413 130.767 44.6274 151.344 73.4358 156.831L73.2834 158.051Z" fill="#008E84" />
  <path d="M99.0432 69.9495C98.4335 69.035 97.2141 68.2729 95.6898 67.968L92.3365 67.5107H92.0316C88.6783 67.8156 86.3919 68.4253 83.8007 69.3398C79.9901 70.7117 77.2464 72.0835 74.5028 73.7602C69.93 76.6562 66.5767 79.7047 64.4427 83.0581C63.2233 84.5823 60.6321 88.5454 63.0709 91.289C64.5951 93.1181 66.8815 93.7278 69.1679 93.7278C71.4543 93.7278 73.7406 93.1181 75.2649 92.8133C80.4473 91.4415 83.191 89.7648 85.7822 88.0881C86.5443 87.6308 87.154 87.1736 87.9162 86.8687C89.5928 85.8017 90.8122 84.4299 91.8792 83.2105C92.0316 83.0581 92.1841 83.0581 92.3365 82.9057C93.5559 82.4484 94.6229 81.8387 95.2326 81.229C96.1471 80.3144 97.0617 79.095 97.8238 77.7232C99.9577 74.8271 100.415 72.2359 99.0432 69.9495ZM97.9762 74.6747C97.9762 74.9796 97.8238 75.132 97.8238 75.132C96.452 77.2659 95.385 78.6378 94.0132 80.0096C93.4035 80.7717 92.7938 81.3814 92.1841 82.1435C92.0317 82.4484 91.8792 82.6008 91.5744 82.9057C90.6598 83.3629 89.7453 83.8202 88.9831 84.2775C85.1725 87.0211 83.0386 88.0881 79.0755 89.7648C76.3319 90.9842 72.5212 91.8987 69.6252 92.356C68.2533 92.356 67.3388 92.2036 66.4243 91.8987C65.5097 91.5939 64.7476 91.289 64.1379 90.3745C63.9855 89.7648 63.6806 89.1551 63.6806 88.6978C63.3757 86.5639 65.0524 84.4299 66.7291 82.296C66.8815 82.1435 67.034 81.8387 67.1864 81.6863C68.8631 79.5523 72.2164 76.5038 75.8746 74.3699H76.027C78.9231 72.6932 81.6667 71.1689 85.7822 70.102C86.0871 69.9495 86.5444 69.9495 86.8492 69.7971C87.9162 69.4923 88.9831 69.1874 90.2025 69.035L90.8123 69.1874C91.422 69.035 94.318 69.1874 95.6898 69.4923C97.5189 70.2544 98.4335 71.4738 98.4335 73.3029C98.2811 73.6077 98.1286 74.2174 97.9762 74.6747Z" fill="#008E84" />
  <path fill-rule="evenodd" clip-rule="evenodd" d="M144.161 153.478C146.6 152.411 149.496 151.344 151.63 149.515C155.288 146.619 151.477 141.132 147.514 143.418C143.856 145.552 147.972 148.448 147.057 149.972C146.905 150.125 146.752 150.887 146.295 151.192C145.533 151.802 144.313 151.954 143.856 151.954C140.503 151.802 138.826 144.942 144.466 141.741C146.752 140.37 150.868 139.912 154.221 140.675C156.965 141.284 159.099 143.113 159.861 145.4C160.013 146.009 160.013 147.229 159.861 148.143C159.861 150.887 159.556 154.545 159.404 157.594C159.251 161.557 160.013 164.3 164.281 162.471C164.281 162.319 164.738 161.709 164.738 161.099C165.043 157.441 165.348 147.991 165.043 147.229C164.586 146.162 161.385 146.162 161.995 143.875C162.452 142.504 164.129 141.589 166.567 140.675C167.482 140.217 168.701 139.608 170.073 139.76C170.531 139.76 171.293 139.912 171.598 140.37C172.055 140.979 172.055 142.199 172.055 142.961C173.731 141.894 174.189 140.675 176.17 140.065C177.542 139.608 179.524 139.912 181.353 140.675C182.725 141.284 183.791 142.656 184.249 143.571C184.554 144.485 184.706 146.314 184.706 147.686C184.858 150.735 184.554 154.088 184.554 157.746C184.554 159.27 184.249 160.642 184.554 161.862C184.858 163.233 187.145 162.776 187.602 163.996C187.755 164.605 187.755 166.129 187.755 166.129H175.865C175.865 166.129 175.713 164.758 175.865 164.3C176.018 163.538 177.237 163.233 177.847 162.776C177.999 162.624 177.999 162.166 177.999 162.014V161.404C177.999 160.795 177.847 160.337 177.999 159.423C178.152 156.832 178.152 156.222 178.152 152.869C178.304 149.515 178.304 147.076 176.932 146.009C176.323 145.4 175.865 145.247 174.798 145.4C171.14 146.162 171.14 149.515 171.14 153.173C171.14 157.441 170.683 160.337 171.293 161.862C171.597 162.471 172.969 162.776 173.884 163.233C174.494 163.386 174.951 163.996 174.951 163.996C174.951 163.996 175.256 165.367 174.951 166.129C169.311 166.129 164.434 165.977 161.69 166.129C158.032 166.129 156.812 166.129 155.898 165.977C154.526 165.52 154.526 164.91 153.764 164.758C152.24 164.3 147.209 167.349 143.704 166.129C141.112 165.215 139.283 163.691 138.521 160.947C137.607 156.984 140.503 155.307 144.161 153.478ZM145.533 160.795C145.99 161.404 146.6 161.862 147.514 161.862C148.734 162.014 150.258 161.862 151.325 160.185C152.544 158.661 152.849 155.765 152.849 153.326C152.24 154.088 151.477 154.393 150.868 154.545C149.496 155.155 147.972 156.069 147.21 156.527C146.6 157.136 145.533 157.746 145.076 159.118C145.228 159.728 145.38 160.49 145.533 160.795Z" fill="#008E84" />
  <path fill-rule="evenodd" clip-rule="evenodd" d="M115.505 157.289C114.591 156.374 113.981 154.697 113.219 152.868C112.761 151.344 112.914 147.991 114.591 145.095C115.962 142.961 118.554 140.674 121.45 139.912C123.736 139.302 125.26 139.15 126.327 139.15C128.156 139.302 129.223 139.76 131.51 139.912C131.967 138.845 133.644 136.559 134.863 136.254C137.912 135.492 141.417 138.998 145.228 135.644C145.38 136.864 144.923 137.931 144.009 139.302C143.094 140.674 142.332 141.284 141.112 141.436C138.826 141.894 135.473 137.931 133.949 140.217C133.339 141.132 133.949 141.589 134.711 142.199C136.235 143.266 138.064 144.79 138.826 146.314C139.893 148.905 140.046 150.277 139.588 152.106C139.283 153.173 138.826 154.24 138.064 155.307C137.454 155.917 136.997 156.679 136.235 157.441C135.473 158.051 134.558 158.356 133.949 158.965C133.339 159.575 133.186 159.88 133.186 160.642C133.186 161.252 134.101 161.557 134.863 161.557C136.235 161.861 137.454 162.624 138.369 163.843C139.436 165.367 139.893 166.739 140.046 168.263C140.198 169.33 140.198 170.092 139.283 172.226C138.674 173.751 137.607 175.427 136.387 176.647C131.967 181.067 127.699 182.286 122.059 181.067C120.688 180.915 117.182 179.238 115.658 177.409C113.524 175.275 113.219 172.531 113.066 172.226C112.914 170.854 112.914 168.416 114.133 166.129C115.048 164.148 116.877 162.776 118.249 162.014C121.297 160.49 127.242 162.166 128.156 165.672C128.309 166.739 127.394 168.721 126.48 169.025C126.022 169.178 124.955 169.635 123.888 169.025C122.974 168.416 122.517 167.044 120.992 167.196C119.925 167.349 119.011 167.806 118.249 169.025C117.029 171.464 119.773 175.58 123.584 176.189C126.48 176.647 128.766 175.427 130.748 173.751C133.034 171.617 134.101 168.873 132.424 166.129C130.9 163.995 128.004 162.471 125.26 161.709C121.907 160.947 118.249 160.49 115.505 157.289ZM121.297 150.887C121.297 153.935 120.84 157.289 123.736 158.508C124.346 158.66 124.955 158.965 125.718 158.965C126.327 158.965 126.937 158.813 127.394 158.508C130.29 157.289 129.833 153.935 129.833 150.887C129.833 148.143 130.443 145.095 128.156 143.723C127.394 143.266 126.632 142.961 125.718 142.961C124.803 142.961 124.193 143.418 123.431 143.723C121.145 145.247 121.297 148.143 121.297 150.887Z" fill="#008E84" />
  <path fill-rule="evenodd" clip-rule="evenodd" d="M100.415 153.478H97.214C97.214 158.051 97.6713 161.099 102.092 162.319C103.006 162.624 104.073 162.319 104.683 162.014C106.817 161.404 108.646 158.203 110.78 158.356C111.39 158.508 111.847 158.965 111.847 159.423C108.646 167.806 99.6528 169.635 93.251 162.014C92.3364 160.947 90.9646 158.356 90.3549 155.612C89.5928 152.259 90.2025 148.6 90.9646 146.771C92.4889 143.57 94.6228 141.284 97.3665 140.217C98.7383 139.607 100.11 139.302 101.787 139.302C103.921 139.302 106.207 140.369 107.427 140.979C111.085 143.113 113.676 149.515 111.847 153.783H100.415V153.478ZM105.14 149.667C106.055 146.771 104.378 142.503 101.33 142.503C98.281 142.503 97.2141 146.924 97.3665 149.667H100.263H105.14Z" fill="#008E84" />
  <path fill-rule="evenodd" clip-rule="evenodd" d="M107.274 115.067C105.14 115.677 98.5859 114.915 94.6229 117.659C91.5744 119.64 90.2025 122.841 90.3549 126.347C90.3549 128.176 91.1171 130.31 91.5744 132.139C93.0986 124.975 95.5374 121.012 103.311 120.402C102.701 122.841 100.72 122.994 98.1286 126.347C94.7753 130.31 93.251 132.444 90.3549 136.712C87.9161 140.37 87.154 142.199 85.6297 145.4C85.6297 145.4 85.3249 146.162 84.8676 147.229C84.5628 147.839 84.2579 148.906 83.4958 149.058C83.4958 134.578 78.3134 130.158 84.7152 116.134C86.8492 110.8 87.154 111.257 88.0686 108.056C88.221 107.294 88.3734 106.532 88.5259 105.617C89.4404 99.5201 88.9831 91.594 88.9831 91.594C90.0501 91.7464 91.8792 93.8804 92.6413 95.2522C92.0316 93.1182 92.4889 91.8988 93.7083 88.5455C96.1471 88.8503 95.0801 91.2891 96.2995 94.49L97.3665 86.4115C100.72 85.8018 102.549 85.6494 105.445 86.2591C103.311 84.5824 101.634 84.1251 101.025 81.8388C104.378 81.8388 105.902 82.1436 109.713 80.9242C105.75 78.4854 104.378 77.5709 104.073 76.9612C108.036 75.2845 109.865 73.7602 111.999 70.7117C111.085 71.7787 108.189 72.5408 107.122 72.5408C107.427 70.2545 110.78 68.2729 112.914 67.3584C107.122 67.206 107.579 67.9681 104.073 68.5778C104.835 64.1575 106.055 62.0235 108.189 60.4993C105.597 61.5662 103.768 64.1575 100.872 64.3099C101.177 62.6332 102.244 59.8896 103.463 59.1274C103.463 58.975 103.311 58.8226 103.311 58.6702C103.311 58.6702 96.7568 63.0905 93.5559 65.9866C93.251 65.5293 92.9462 64.7672 92.9462 64.6147C92.9462 62.4808 92.6413 61.2614 93.8607 59.4323C92.1841 60.1944 89.1355 64.005 88.6782 65.3769C88.6782 65.3769 86.3919 61.7187 84.5628 60.4993C83.9531 59.8896 83.191 60.042 82.4289 59.8896C83.4958 61.7187 82.7337 64.6147 81.9716 66.7487C79.99 66.5963 77.8561 64.7672 76.7891 63.3953C77.2464 65.5293 78.1609 67.3584 77.3988 69.6448C75.7221 69.1875 74.6551 67.6632 74.96 65.6817C73.1309 67.206 73.7406 68.8826 72.9785 71.4739C70.0824 70.8642 68.2533 69.6448 67.3387 67.3584C66.5766 70.8642 67.0339 72.9981 67.9485 76.5039C64.2903 76.6563 60.9369 76.5039 59.5651 73.4554C58.9554 76.5039 60.6321 77.8757 61.5466 80.7718C59.4127 81.3815 59.1078 81.5339 57.8884 81.9912C57.2787 82.1436 56.669 82.4485 56.2117 82.6009C53.6205 83.6679 51.4866 85.0397 49.3526 85.497C50.8769 86.1067 54.2302 86.1067 55.7545 86.1067L48.5905 93.2706C52.8584 91.8988 50.1147 91.1367 56.2117 91.1367C56.669 91.1367 57.2787 91.1367 57.8884 91.1367L56.2117 92.9658L50.1147 99.6725C52.4011 98.3007 54.2302 97.5385 56.2117 97.0813C57.2787 96.7764 58.4981 96.624 59.8699 96.624C59.7175 97.9958 56.3642 102.264 57.1263 105.16C58.6505 102.111 63.6806 99.5201 66.7291 99.0628C66.2718 103.026 65.3572 104.398 64.7475 104.703C69.6251 103.636 70.0824 99.8249 72.8261 99.3676C73.2833 101.197 73.893 101.959 74.1979 103.94C75.8745 98.7579 77.5512 96.3191 78.3134 95.8619C78.9231 98.6055 78.3134 100.13 78.1609 102.721C81.5143 99.8249 81.9716 99.8249 83.8007 95.4046C84.4104 95.557 85.0201 95.7094 85.4774 95.8619C85.9346 96.0143 86.3919 96.1667 87.0016 96.624C87.0016 100.435 86.8492 103.331 86.2395 105.922C86.0871 106.379 85.9346 106.836 85.7822 107.141C84.8676 109.885 83.4958 112.324 82.5812 114.458C80.9046 118.268 79.99 121.622 79.2279 126.194C78.1609 131.072 80.9046 146.467 79.6852 146.01C79.5328 146.01 79.3803 146.467 78.9231 145.552C78.3134 144.028 78.3134 143.418 77.7037 141.589C76.9415 138.693 76.1794 137.474 74.3503 133.968C64.9 117.964 54.2302 115.372 52.706 115.22C53.773 116.897 55.9069 118.116 57.1263 119.488C63.0709 125.585 64.2903 127.871 65.2048 129.395C71.1494 138.236 73.1309 143.266 75.5697 152.564C76.1794 155.917 77.094 159.423 77.3988 162.776C77.5512 163.843 77.7037 165.215 77.7037 165.977H86.5443C86.5443 159.118 87.4589 152.564 89.7452 146.315C90.6598 143.723 92.184 141.132 93.4034 138.693C94.0131 137.626 95.0801 135.797 95.9947 134.578C96.6044 133.968 97.3665 133.663 97.5189 133.054C99.348 133.816 101.025 133.358 102.854 132.901C104.835 132.291 105.445 131.987 106.207 131.224C106.817 130.615 107.731 130.158 108.798 128.328C110.78 124.213 109.713 121.469 111.237 117.659C112.609 114.305 114.286 113.391 115.2 110.495C112.152 112.933 108.036 114.763 107.274 115.067ZM85.3249 93.4231C84.5628 92.9658 83.6482 92.6609 82.8861 92.6609C82.4288 95.557 81.5143 96.1667 79.8376 98.3007C79.8376 95.2522 80.1425 94.0328 79.8376 92.2037C77.7037 93.1182 76.7891 94.3376 75.8746 96.624C74.96 98.3007 74.8076 97.8434 74.3503 98.6055C74.1979 96.9288 73.4357 96.4716 73.4357 94.6425C71.7591 95.2522 72.2163 98.6055 68.1009 100.587C68.5581 99.8249 68.2533 98.6055 68.2533 95.7094L60.4796 99.3676C61.3942 96.9288 62.9184 95.2522 63.2233 94.1852L56.0593 95.4046C57.4311 94.3376 58.3457 92.8134 58.9554 92.0512C60.3272 90.6794 60.6321 90.2221 60.6321 89.6124H53.9254L56.0593 88.2406L62.3087 84.2776C59.7175 84.7348 58.4981 84.8873 56.0593 84.8873H55.7545C55.9069 84.8873 55.9069 84.8873 56.0593 84.7348C57.736 83.8203 59.1078 82.9057 61.0894 82.296C62.4612 81.6863 63.0709 81.6863 64.7475 81.0766C63.0709 80.3145 62.1563 79.4 61.5466 77.4184C63.3757 78.0281 67.1863 78.0281 69.6251 76.8087C69.3203 74.6748 68.2533 73.6078 68.863 71.7787C71.6066 71.9311 71.7591 73.303 74.5027 73.9127C74.5027 72.5408 74.8076 71.3214 75.1124 70.102C76.4843 70.7117 77.2464 71.3214 78.7706 71.3214C79.3803 69.6448 79.3804 68.8826 79.3804 67.3584C79.8376 68.2729 82.2764 69.1875 83.191 69.3399C83.191 67.3584 83.9531 65.9866 84.7152 62.9381C85.9346 63.7002 87.6113 65.9866 87.9161 68.1205C89.4404 67.9681 91.5744 66.139 91.5744 66.139L92.4889 67.8157C92.4889 67.8157 92.4889 67.8157 92.4889 67.9681C92.4889 68.1205 92.4889 68.1205 92.4889 68.2729L92.7937 67.9681L100.11 62.6332C100.263 62.6332 99.9577 62.6332 100.11 62.9381C99.348 63.8526 98.5859 67.206 98.5859 68.5778C98.7383 68.5778 103.768 65.3769 103.921 64.9196C103.616 67.5108 102.549 68.7302 101.482 71.3214L107.884 69.3399C106.36 71.3214 104.073 73.4554 101.33 73.9127C101.939 75.1321 103.921 74.6748 106.207 74.6748C103.159 75.8942 102.396 76.0466 100.11 76.8087C100.872 77.4184 102.244 77.4184 105.902 80.1621C102.092 80.7718 101.482 80.0097 98.5859 79.7048C98.7383 81.6863 99.6529 83.0582 101.482 84.5824C98.8908 85.0397 97.9762 83.9727 95.5374 83.6679C95.8422 85.497 96.6043 85.8018 95.5374 87.3261C93.8607 86.7164 92.7937 87.0212 90.9646 87.3261C91.117 88.393 92.3365 89.1552 91.8792 90.8318C90.3549 90.2221 89.7452 89.3076 88.221 89.0027C87.4589 90.0697 87.6113 92.6609 87.3064 94.6425C86.3919 93.8803 85.9346 93.5755 85.3249 93.4231Z" fill="#008E84" />
  <path d="M183.944 136.102H185.773V140.827H186.688V136.102H188.517V135.188H183.944V136.102Z" fill="#008E84" />
  <path d="M193.242 135.188L191.87 138.998C191.87 139.151 191.718 139.303 191.718 139.455C191.718 139.303 191.566 139.151 191.566 138.998L190.194 135.035H188.974V140.675H189.889V136.712L191.261 140.675H192.023L193.395 136.712V140.675H194.309V135.035H193.242V135.188Z" fill="#008E84" />
</svg>
