<svg width="198" height="78" viewBox="0 0 198 78" fill="none" xmlns="http://www.w3.org/2000/svg">
  <path d="M56.1127 40.0548C56.1127 38.7991 56.3659 37.5937 56.8217 36.4888C57.2775 35.3838 57.9359 34.4295 58.7968 33.5757C59.6578 32.7721 60.6707 32.1191 61.8355 31.6671C63.0003 31.2151 64.3171 30.964 65.7351 30.964C67.1531 30.964 68.4193 31.2151 69.5841 31.6671C70.7489 32.1191 71.7618 32.7721 72.6227 33.5757C73.4837 34.3793 74.1421 35.3838 74.5979 36.4888C75.0537 37.5937 75.3069 38.7991 75.3069 40.0548C75.3069 41.3104 75.0537 42.5158 74.5979 43.6208C74.1421 44.7257 73.433 45.68 72.6227 46.5338C71.7618 47.3375 70.7489 47.9904 69.5841 48.4424C68.4193 48.8944 67.1025 49.1456 65.7351 49.1456C64.3171 49.1456 63.051 48.8944 61.8355 48.4424C60.6707 47.9904 59.6578 47.3375 58.7968 46.5338C57.9359 45.7302 57.2775 44.7257 56.8217 43.6208C56.3659 42.5158 56.1127 41.3104 56.1127 40.0548ZM60.8226 40.0548C60.8226 40.7579 60.9745 41.3606 61.2278 41.9633C61.481 42.566 61.8355 43.0683 62.2913 43.4701C62.7471 43.8719 63.2535 44.2235 63.8613 44.4746C64.469 44.7257 65.0767 44.8262 65.7351 44.8262C66.3935 44.8262 67.0012 44.7257 67.6089 44.4746C68.2167 44.2235 68.7231 43.9221 69.1789 43.4701C69.6347 43.0683 69.9892 42.566 70.2425 41.9633C70.4957 41.3606 70.6476 40.7579 70.6476 40.0548C70.6476 39.3516 70.4957 38.7489 70.2425 38.1462C69.9892 37.5435 69.6347 37.0412 69.1789 36.6394C68.7231 36.2376 68.2167 35.8861 67.6089 35.6349C67.0012 35.3838 66.3935 35.2834 65.7351 35.2834C65.0767 35.2834 64.469 35.3838 63.8613 35.6349C63.2535 35.8861 62.7471 36.1874 62.2913 36.6394C61.8355 37.0412 61.481 37.5937 61.2278 38.1462C60.9745 38.7489 60.8226 39.3516 60.8226 40.0548Z" fill="#C5A25D" />
  <path d="M95.3114 37.0412C95.3114 37.0412 91.9689 35.2834 88.9809 35.2834C86.3474 35.2834 83.5113 36.5892 83.5113 40.0045C83.5113 43.7715 87.4109 44.776 88.9809 44.776C95.0582 44.776 96.5269 42.8172 96.5269 42.8172V47.1868C96.5269 47.1868 94.6531 49.1456 88.9809 49.1456C87.7654 49.1456 78.8014 48.8442 78.8014 40.0045C78.8014 36.5892 81.2323 30.964 88.9809 30.964C92.8805 30.964 95.3114 32.7721 95.3114 32.7721V37.0412Z" fill="#C5A25D" />
  <path d="M51.4028 37.0412C51.4028 37.0412 48.0602 35.2833 45.0722 35.2833C42.4387 35.2833 39.6026 36.5892 39.6026 40.0045C39.6026 43.7714 43.5022 44.7759 45.0722 44.7759C51.1495 44.7759 52.6182 42.8171 52.6182 42.8171V47.1868C52.6182 47.1868 50.7444 49.1455 45.0722 49.1455C43.8567 49.1455 34.8927 48.8442 34.8927 40.0045C34.8927 36.5892 37.3236 30.9639 45.0722 30.9639C48.9718 30.9639 51.4028 32.772 51.4028 32.772V37.0412Z" fill="#C5A25D" />
  <path d="M100.021 40.0548C100.021 38.7991 100.275 37.5937 100.73 36.4888C101.186 35.3838 101.845 34.4295 102.705 33.5757C103.566 32.7721 104.579 32.1191 105.744 31.6671C106.909 31.2151 108.226 30.964 109.644 30.964C111.062 30.964 112.328 31.2151 113.493 31.6671C114.658 32.1191 115.67 32.7721 116.531 33.5757C117.392 34.3793 118.051 35.3838 118.507 36.4888C118.962 37.5937 119.216 38.7991 119.216 40.0548C119.216 41.3104 118.962 42.5158 118.507 43.6208C118.051 44.7257 117.342 45.68 116.531 46.5338C115.67 47.3375 114.658 47.9904 113.493 48.4424C112.328 48.8944 111.011 49.1456 109.644 49.1456C108.226 49.1456 106.96 48.8944 105.744 48.4424C104.579 47.9904 103.566 47.3375 102.705 46.5338C101.845 45.7302 101.186 44.7257 100.73 43.6208C100.224 42.5158 100.021 41.3104 100.021 40.0548ZM104.731 40.0548C104.731 40.7579 104.883 41.3606 105.136 41.9633C105.39 42.566 105.744 43.0683 106.2 43.4701C106.656 43.8719 107.162 44.2235 107.77 44.4746C108.378 44.7257 108.985 44.8262 109.644 44.8262C110.302 44.8262 110.91 44.7257 111.518 44.4746C112.125 44.2235 112.632 43.9221 113.088 43.4701C113.543 43.0683 113.898 42.566 114.151 41.9633C114.404 41.3606 114.556 40.7579 114.556 40.0548C114.556 39.3516 114.404 38.7489 114.151 38.1462C113.898 37.5435 113.543 37.0412 113.088 36.6394C112.632 36.2376 112.125 35.8861 111.518 35.6349C110.91 35.3838 110.302 35.2834 109.644 35.2834C108.985 35.2834 108.378 35.3838 107.77 35.6349C107.162 35.8861 106.656 36.1874 106.2 36.6394C105.744 37.0412 105.39 37.5937 105.136 38.1462C104.883 38.7489 104.731 39.3516 104.731 40.0548Z" fill="#C5A25D" />
  <path d="M122.71 40.0548C122.71 38.7991 122.963 37.5937 123.419 36.4888C123.875 35.3838 124.533 34.4295 125.394 33.5757C126.255 32.7721 127.268 32.1191 128.433 31.6671C129.598 31.2151 130.914 30.964 132.332 30.964C133.75 30.964 135.017 31.2151 136.181 31.6671C137.346 32.1191 138.359 32.7721 139.22 33.5757C140.081 34.3793 140.739 35.3838 141.195 36.4888C141.651 37.5937 141.904 38.7991 141.904 40.0548C141.904 41.3104 141.651 42.5158 141.195 43.6208C140.739 44.7257 140.03 45.68 139.22 46.5338C138.359 47.3375 137.346 47.9904 136.181 48.4424C135.017 48.8944 133.7 49.1456 132.332 49.1456C130.914 49.1456 129.648 48.8944 128.433 48.4424C127.268 47.9904 126.255 47.3375 125.394 46.5338C124.533 45.7302 123.875 44.7257 123.419 43.6208C122.963 42.5158 122.71 41.3104 122.71 40.0548ZM127.42 40.0548C127.42 40.7579 127.572 41.3606 127.825 41.9633C128.078 42.566 128.433 43.0683 128.889 43.4701C129.344 43.8719 129.851 44.2235 130.459 44.4746C131.066 44.7257 131.674 44.8262 132.332 44.8262C132.991 44.8262 133.599 44.7257 134.206 44.4746C134.814 44.2235 135.32 43.9221 135.776 43.4701C136.232 43.0683 136.587 42.566 136.84 41.9633C137.093 41.3606 137.245 40.7579 137.245 40.0548C137.245 39.3516 137.093 38.7489 136.84 38.1462C136.587 37.5435 136.232 37.0412 135.776 36.6394C135.32 36.2376 134.814 35.8861 134.206 35.6349C133.599 35.3838 132.991 35.2834 132.332 35.2834C131.674 35.2834 131.066 35.3838 130.459 35.6349C129.851 35.8861 129.344 36.1874 128.889 36.6394C128.433 37.0412 128.078 37.5937 127.825 38.1462C127.572 38.7489 127.42 39.3516 127.42 40.0548Z" fill="#C5A25D" />
  <path d="M146.158 48.6433V31.416H150.666V33.7766C150.666 33.7766 154.97 31.416 158.414 31.416C160.795 31.416 162.922 32.772 162.922 35.886C162.922 41.3606 162.922 48.6433 162.922 48.6433H158.921C158.921 48.6433 158.921 40.6072 158.921 37.5937C158.921 37.0412 158.921 35.5344 157.3 35.5344C155.274 35.5344 150.716 36.8403 150.716 40.9588C150.716 45.7804 150.716 48.6433 150.716 48.6433H146.158Z" fill="#C5A25D" />
  <path d="M48.5667 60.1449C48.2122 59.7933 48.0096 59.3413 48.0096 58.7386V55.6748C48.0096 55.0721 48.2122 54.6201 48.5667 54.2685C48.9212 53.9169 49.377 53.7662 49.9847 53.7662C50.5925 53.7662 51.0483 53.9169 51.4028 54.2685C51.7573 54.6201 51.9599 55.0721 51.9599 55.6748V58.7386C51.9599 59.3413 51.7573 59.7933 51.4028 60.1449C51.0483 60.4964 50.5925 60.6471 49.9847 60.6471C49.4276 60.6973 48.9212 60.4964 48.5667 60.1449ZM50.4405 59.3413C50.5418 59.2408 50.5925 59.0399 50.5925 58.839V55.6246C50.5925 55.4237 50.5418 55.273 50.4405 55.1223C50.3392 55.0219 50.1873 54.9214 49.9847 54.9214C49.7822 54.9214 49.6809 54.9716 49.5289 55.1223C49.4276 55.2228 49.377 55.4237 49.377 55.6246V58.839C49.377 59.0399 49.4276 59.1906 49.5289 59.3413C49.6302 59.4417 49.7822 59.5422 49.9847 59.5422C50.1873 59.4919 50.3392 59.4417 50.4405 59.3413Z" fill="#C5A25D" />
  <path d="M57.784 60.4964L57.0243 57.8345L56.9736 57.7843H56.6191C56.5685 57.7843 56.5685 57.7843 56.5685 57.8345V60.4462C56.5685 60.4964 56.5685 60.4964 56.5178 60.5467C56.5178 60.5467 56.4672 60.5969 56.4166 60.5969H55.3024C55.2517 60.5969 55.2517 60.5969 55.2011 60.5467C55.2011 60.5467 55.1505 60.4964 55.1505 60.4462V53.9671C55.1505 53.9169 55.1504 53.9169 55.2011 53.8667C55.2011 53.8667 55.2517 53.8164 55.3024 53.8164H57.2775C57.632 53.8164 57.9359 53.9169 58.2398 54.0676C58.493 54.2182 58.7462 54.4694 58.8981 54.7707C59.0501 55.0721 59.1514 55.4237 59.1514 55.8255C59.1514 56.2273 59.1007 56.5286 58.9488 56.83C58.7968 57.1313 58.5943 57.3322 58.341 57.4829C58.341 57.4829 58.341 57.4829 58.2904 57.4829C58.2398 57.4829 58.2904 57.4829 58.2904 57.5331L59.202 60.3458V60.396C59.202 60.4462 59.1514 60.4964 59.1007 60.4964H57.9359C57.8852 60.5969 57.8346 60.5467 57.784 60.4964ZM56.6191 55.0721V56.7295C56.6191 56.7797 56.6191 56.7797 56.6698 56.7797H57.1256C57.3282 56.7797 57.4801 56.6793 57.632 56.5286C57.7333 56.3779 57.8346 56.177 57.8346 55.8757C57.8346 55.6246 57.784 55.3734 57.632 55.2228C57.5307 55.0721 57.3282 54.9716 57.1256 54.9716L56.6191 55.0721C56.6191 55.0218 56.6698 55.0218 56.6191 55.0721Z" fill="#C5A25D" />
  <path d="M62.3926 60.5467C62.3926 60.5467 62.3419 60.4964 62.3419 60.4462V53.9671C62.3419 53.9169 62.3419 53.9169 62.3926 53.8667C62.3926 53.8667 62.4432 53.8164 62.4939 53.8164H63.6081C63.6587 53.8164 63.6587 53.8164 63.7093 53.8667C63.7093 53.8667 63.76 53.9169 63.76 53.9671V60.4964C63.76 60.5467 63.76 60.5467 63.7093 60.5969C63.7093 60.5969 63.6587 60.6471 63.6081 60.6471H62.4939C62.4432 60.5969 62.3926 60.5969 62.3926 60.5467Z" fill="#C5A25D" />
  <path d="M67.5583 60.1951C67.2038 59.8435 67.0519 59.4417 67.0519 58.8892V55.6246C67.0519 55.0721 67.2038 54.62 67.5583 54.3187C67.9128 53.9671 68.3686 53.8164 68.9764 53.8164C69.5841 53.8164 70.0399 53.9671 70.3944 54.3187C70.7489 54.6703 70.9515 55.0721 70.9515 55.6246V55.9761C70.9515 56.0264 70.9515 56.0264 70.9008 56.0766C70.9008 56.0766 70.8502 56.1268 70.7995 56.1268H69.6854C69.6347 56.1268 69.6347 56.1268 69.5841 56.0766C69.5841 56.0766 69.5334 56.0264 69.5334 55.9761V55.5743C69.5334 55.3734 69.4828 55.2228 69.3815 55.1223C69.2802 55.0219 69.1283 54.9214 68.9764 54.9214C68.8244 54.9214 68.6725 54.9716 68.5712 55.1223C68.4699 55.2228 68.4193 55.3734 68.4193 55.5743V58.839C68.4193 59.0399 68.4699 59.1906 68.5712 59.291C68.6725 59.3915 68.8244 59.4919 68.9764 59.4919C69.1283 59.4919 69.2802 59.4417 69.3815 59.291C69.4828 59.1906 69.5334 59.0399 69.5334 58.839V58.0856C69.5334 58.0354 69.5334 58.0354 69.4828 58.0354H69.0776C69.027 58.0354 69.027 58.0354 68.9764 57.9852C68.9764 57.9852 68.9257 57.9349 68.9257 57.8847V57.0309C68.9257 56.9806 68.9257 56.9806 68.9764 56.9304C68.9764 56.9304 69.027 56.8802 69.0776 56.8802H70.7995C70.8502 56.8802 70.8502 56.8802 70.9008 56.9304C70.9008 56.9304 70.9515 56.9806 70.9515 57.0309V58.7888C70.9515 59.3412 70.7489 59.7933 70.3944 60.0946C70.0399 60.4462 69.5841 60.5969 68.9764 60.5969C68.3686 60.6973 67.9128 60.4964 67.5583 60.1951Z" fill="#C5A25D" />
  <path d="M74.1927 60.5467C74.1927 60.5467 74.1421 60.4964 74.1421 60.4462V53.9671C74.1421 53.9169 74.1421 53.9169 74.1927 53.8667C74.1927 53.8667 74.2434 53.8164 74.294 53.8164H75.4082C75.4588 53.8164 75.4588 53.8164 75.5095 53.8667C75.5095 53.8667 75.5601 53.9169 75.5601 53.9671V60.4964C75.5601 60.5467 75.5601 60.5467 75.5095 60.5969C75.5095 60.5969 75.4588 60.6471 75.4082 60.6471H74.294C74.2434 60.5969 74.1927 60.5969 74.1927 60.5467Z" fill="#C5A25D" />
  <path d="M81.7387 53.9169C81.7387 53.9169 81.7894 53.8667 81.84 53.8667H82.9542C83.0048 53.8667 83.0048 53.8667 83.0555 53.9169C83.1061 53.9671 83.1061 53.9671 83.1061 54.0173V60.4964C83.1061 60.5467 83.1061 60.5467 83.0555 60.5969C83.0555 60.5969 83.0048 60.6471 82.9542 60.6471H81.6881C81.6374 60.6471 81.5868 60.5969 81.5868 60.5467L80.3713 56.83C80.3713 56.83 80.3713 56.7797 80.3207 56.83C80.3207 56.83 80.3207 56.83 80.3207 56.8802V60.5969C80.3207 60.6471 80.3207 60.6471 80.27 60.6973C80.27 60.6973 80.2194 60.7476 80.1688 60.7476H79.0546C79.0039 60.7476 79.0039 60.7476 78.9533 60.6973C78.9533 60.6973 78.9026 60.6471 78.9026 60.5969V53.9671C78.9026 53.9169 78.9027 53.9169 78.9533 53.8667C78.9533 53.8667 79.0039 53.8164 79.0546 53.8164H80.3207C80.3713 53.8164 80.422 53.8667 80.422 53.9169L81.6374 57.6336C81.6374 57.6336 81.6374 57.6838 81.6881 57.6336C81.6881 57.6336 81.6881 57.6336 81.6881 57.5833V53.8667C81.6881 53.9671 81.6881 53.9169 81.7387 53.9169Z" fill="#C5A25D" />
  <path d="M89.1328 60.4964L88.9809 59.5924C88.9809 59.5421 88.9809 59.5422 88.9302 59.5422H87.7148C87.6641 59.5422 87.6641 59.5421 87.6641 59.5924L87.5122 60.4964C87.5122 60.5467 87.4615 60.5969 87.4109 60.5969H86.2967C86.1954 60.5969 86.1954 60.5467 86.1954 60.4964L87.6135 54.0174C87.6135 53.9671 87.6641 53.9169 87.7148 53.9169H89.0315C89.0822 53.9169 89.1328 53.9671 89.1328 54.0174L90.5508 60.4964V60.5467C90.5508 60.5969 90.5002 60.6471 90.4496 60.6471H89.2847C89.1835 60.5969 89.1328 60.5467 89.1328 60.4964ZM87.8667 58.4874H88.7277C88.7783 58.4874 88.7783 58.4874 88.7783 58.4372L88.3225 55.8255C88.3225 55.8255 88.3225 55.7752 88.2719 55.7752C88.2719 55.7752 88.2719 55.7752 88.2212 55.8255L87.8667 58.4874C87.8667 58.4874 87.8161 58.4372 87.8667 58.4874Z" fill="#C5A25D" />
  <path d="M93.6401 60.5466C93.6401 60.5466 93.5895 60.4964 93.5895 60.4462V53.9671C93.5895 53.9169 93.5895 53.9169 93.6401 53.8667C93.6401 53.8667 93.6908 53.8164 93.7414 53.8164H94.8556C94.9063 53.8164 94.9063 53.8164 94.9569 53.8667C94.9569 53.8667 95.0075 53.9169 95.0075 53.9671V59.3915C95.0075 59.4417 95.0075 59.4417 95.0582 59.4417H97.084C97.1346 59.4417 97.1346 59.4417 97.1853 59.4919C97.1853 59.4919 97.2359 59.5421 97.2359 59.5924V60.5466C97.2359 60.5969 97.2359 60.5969 97.1853 60.6471C97.1853 60.6471 97.1346 60.6973 97.084 60.6973H93.7414C93.6908 60.5969 93.6908 60.5969 93.6401 60.5466Z" fill="#C5A25D" />
  <path d="M105.896 60.4965L104.529 54.0174V53.9671C104.529 53.9169 104.579 53.8667 104.63 53.8667H105.896C105.997 53.8667 105.997 53.9169 105.997 53.9671L106.656 58.1861C106.656 58.1861 106.656 58.2363 106.706 58.2363C106.706 58.2363 106.706 58.2363 106.757 58.1861L107.415 53.9671C107.415 53.9169 107.466 53.8667 107.517 53.8667H108.732C108.833 53.8667 108.833 53.9169 108.833 53.9671L107.415 60.4965C107.415 60.5467 107.365 60.5969 107.314 60.5969H106.048C105.997 60.5969 105.947 60.5467 105.896 60.4965Z" fill="#C5A25D" />
  <path d="M112.024 60.5467C112.024 60.5467 111.973 60.4964 111.973 60.4462V53.9671C111.973 53.9169 111.973 53.9169 112.024 53.8667C112.024 53.8667 112.075 53.8164 112.125 53.8164H113.24C113.29 53.8164 113.29 53.8164 113.341 53.8667C113.341 53.8667 113.391 53.9169 113.391 53.9671V60.4964C113.391 60.5467 113.391 60.5467 113.341 60.5969C113.341 60.5969 113.29 60.6471 113.24 60.6471H112.125C112.075 60.5969 112.024 60.5969 112.024 60.5467Z" fill="#C5A25D" />
  <path d="M120.279 55.0219C120.279 55.0219 120.228 55.0721 120.178 55.0721H118.152C118.101 55.0721 118.101 55.0721 118.101 55.1223V56.6291C118.101 56.6793 118.101 56.6793 118.152 56.6793H119.317C119.367 56.6793 119.367 56.6793 119.418 56.7295C119.418 56.7295 119.469 56.7797 119.469 56.83V57.7843C119.469 57.8345 119.469 57.8345 119.418 57.8847C119.418 57.8847 119.367 57.9349 119.317 57.9349H118.152C118.101 57.9349 118.101 57.9349 118.101 57.9852V59.4919C118.101 59.5421 118.101 59.5421 118.152 59.5421H120.178C120.228 59.5421 120.228 59.5421 120.279 59.5924C120.279 59.5924 120.33 59.6426 120.33 59.6928V60.6471C120.33 60.6973 120.33 60.6973 120.279 60.7476C120.279 60.7476 120.228 60.7978 120.178 60.7978H116.835C116.785 60.7978 116.785 60.7978 116.734 60.7476C116.734 60.7476 116.683 60.6973 116.683 60.6471V53.9671C116.683 53.9169 116.683 53.9169 116.734 53.8667C116.734 53.8667 116.785 53.8164 116.835 53.8164H120.178C120.228 53.8164 120.228 53.8164 120.279 53.8667C120.279 53.8667 120.33 53.9169 120.33 53.9671V54.9214C120.279 54.9716 120.279 54.9716 120.279 55.0219Z" fill="#C5A25D" />
  <path d="M127.369 53.9169C127.369 53.9169 127.42 53.9671 127.42 54.0173V54.9716C127.42 55.0219 127.42 55.0218 127.369 55.0721C127.369 55.0721 127.319 55.1223 127.268 55.1223H126.053C126.002 55.1223 126.002 55.1223 126.002 55.1725V60.4964C126.002 60.5467 126.002 60.5467 125.951 60.5969C125.951 60.5969 125.901 60.6471 125.85 60.6471H124.736C124.685 60.6471 124.685 60.6471 124.634 60.5969C124.634 60.5969 124.584 60.5467 124.584 60.4964V55.0721C124.584 55.0218 124.584 55.0219 124.533 55.0219H123.368C123.318 55.0219 123.318 55.0219 123.267 54.9716C123.216 54.9214 123.216 54.9214 123.216 54.8712V53.9671C123.216 53.9169 123.216 53.9169 123.267 53.8667C123.318 53.8164 123.318 53.8164 123.368 53.8164H127.217C127.319 53.8667 127.319 53.8667 127.369 53.9169Z" fill="#C5A25D" />
  <path d="M133.396 53.9169C133.396 53.9169 133.447 53.8667 133.497 53.8667H134.611C134.662 53.8667 134.662 53.8667 134.713 53.9169C134.763 53.9671 134.763 53.9671 134.763 54.0173V60.4964C134.763 60.5467 134.763 60.5467 134.713 60.5969C134.713 60.5969 134.662 60.6471 134.611 60.6471H133.345C133.295 60.6471 133.244 60.5969 133.244 60.5467L132.029 56.83C132.029 56.83 132.029 56.7797 131.978 56.83C131.978 56.83 131.978 56.83 131.978 56.8802V60.5969C131.978 60.6471 131.978 60.6471 131.927 60.6973C131.927 60.6973 131.877 60.7476 131.826 60.7476H130.712C130.661 60.7476 130.661 60.7476 130.61 60.6973C130.61 60.6973 130.56 60.6471 130.56 60.5969V53.9671C130.56 53.9169 130.56 53.9169 130.61 53.8667C130.61 53.8667 130.661 53.8164 130.712 53.8164H131.978C132.029 53.8164 132.079 53.8667 132.079 53.9169L133.295 57.6336C133.295 57.6336 133.295 57.6838 133.345 57.6336C133.345 57.6336 133.345 57.6336 133.345 57.5833V53.8667C133.345 53.9671 133.345 53.9169 133.396 53.9169Z" fill="#C5A25D" />
  <path d="M140.79 60.4964L140.638 59.5924C140.638 59.5421 140.638 59.5422 140.587 59.5422H139.372C139.321 59.5422 139.321 59.5421 139.321 59.5924L139.169 60.4964C139.169 60.5467 139.119 60.5969 139.068 60.5969H137.954C137.853 60.5969 137.853 60.5467 137.853 60.4964L139.271 54.0174C139.271 53.9671 139.321 53.9169 139.372 53.9169H140.689C140.739 53.9169 140.79 53.9671 140.79 54.0174L142.208 60.4964V60.5467C142.208 60.5969 142.157 60.6471 142.107 60.6471H140.942C140.841 60.5969 140.841 60.5467 140.79 60.4964ZM139.524 58.4874H140.385C140.436 58.4874 140.436 58.4874 140.436 58.4372L139.98 55.8255C139.98 55.8255 139.98 55.7752 139.929 55.7752C139.929 55.7752 139.929 55.7752 139.878 55.8255L139.524 58.4874C139.524 58.4874 139.524 58.4372 139.524 58.4874Z" fill="#C5A25D" />
  <path d="M148.539 53.8667H149.653C149.703 53.8667 149.703 53.8667 149.754 53.9169C149.754 53.9169 149.805 53.9671 149.805 54.0173V60.4964C149.805 60.5467 149.805 60.5467 149.754 60.5969C149.754 60.5969 149.703 60.6471 149.653 60.6471H148.539C148.488 60.6471 148.488 60.6471 148.437 60.5969C148.437 60.5969 148.387 60.5467 148.387 60.4964V56.177C148.387 56.1268 148.387 56.1268 148.387 56.1268C148.387 56.1268 148.387 56.1268 148.336 56.177L147.576 57.4829C147.526 57.5331 147.526 57.5834 147.475 57.5834C147.424 57.5834 147.424 57.5331 147.374 57.4829L146.614 56.177L146.564 56.1268C146.564 56.1268 146.564 56.1268 146.564 56.177V60.4964C146.564 60.5467 146.564 60.5467 146.513 60.5969C146.513 60.5969 146.462 60.6471 146.412 60.6471H145.297C145.247 60.6471 145.247 60.6471 145.196 60.5969C145.196 60.5969 145.145 60.5467 145.145 60.4964V53.9671C145.145 53.9169 145.145 53.9169 145.196 53.8667C145.247 53.8164 145.247 53.8164 145.297 53.8164H146.412C146.462 53.8164 146.513 53.8164 146.564 53.9169L147.424 55.4237C147.424 55.4739 147.475 55.4739 147.475 55.4237L148.285 53.9169C148.387 53.8667 148.437 53.8667 148.539 53.8667Z" fill="#C5A25D" />
  <path d="M89.8925 20.0649V18.1061H91.8169V20.0649H93.5389V21.5717H91.8169V24.1834C91.8169 24.535 91.9182 24.7861 92.0702 24.8866C92.2221 25.0372 92.4247 25.0875 92.6779 25.0875C92.8805 25.0875 93.0831 25.0372 93.2856 24.987C93.4882 24.9368 93.6401 24.8866 93.7921 24.7861V26.3933C93.6401 26.4435 93.4376 26.544 93.1337 26.5942C92.8298 26.6444 92.526 26.6947 92.1208 26.6947C91.8676 26.6947 91.6144 26.6444 91.3612 26.5942C91.1079 26.544 90.9054 26.4435 90.7028 26.2929C90.5002 26.1422 90.3483 25.9413 90.1963 25.7404C90.0444 25.4893 89.9938 25.1879 89.9431 24.8866C89.9431 24.7861 89.9431 24.6856 89.8925 24.5852C89.8925 24.4847 89.8925 24.3843 89.8925 24.2336V21.5717H88.9809V20.0649H89.8925Z" fill="#C5A25D" />
  <path d="M96.8308 17.2021V20.4165C96.8308 20.5672 96.8308 20.7179 96.8308 20.8183C96.8308 20.969 96.8308 21.0695 96.8308 21.1197C96.932 20.969 97.0333 20.8686 97.1853 20.7179C97.3372 20.5672 97.4891 20.4165 97.6411 20.3161C97.8436 20.2156 98.0462 20.1152 98.2488 20.0147C98.4514 19.9143 98.7046 19.9143 99.0085 19.9143C99.7681 19.9143 100.325 20.1152 100.73 20.5672C101.136 21.0192 101.338 21.6722 101.338 22.526V26.5943H99.3123V22.8273C99.3123 22.526 99.2617 22.2246 99.1097 22.0237C99.0085 21.7726 98.7552 21.6722 98.4007 21.6722C97.9449 21.6722 97.5398 21.8228 97.2865 22.1242C96.9827 22.4255 96.8814 22.8273 96.8814 23.3296V26.5943H94.9063V17.2021H96.8308Z" fill="#C5A25D" />
  <path d="M105.795 19.9142C106.301 19.9142 106.757 20.0147 107.112 20.1654C107.517 20.316 107.821 20.5672 108.074 20.8183C108.327 21.1197 108.53 21.421 108.631 21.7726C108.783 22.1242 108.833 22.526 108.833 22.9278C108.833 23.0784 108.833 23.2794 108.833 23.3798C108.833 23.5305 108.833 23.6309 108.783 23.6812H104.478C104.529 24.1332 104.681 24.4848 105.035 24.6857C105.339 24.9368 105.795 25.0372 106.301 25.0372C106.554 25.0372 106.757 25.0372 107.01 24.987C107.213 24.9368 107.466 24.9368 107.669 24.8866C107.871 24.8363 108.074 24.7861 108.226 24.7359C108.378 24.6857 108.53 24.6354 108.631 24.5852V26.2427C108.428 26.3431 108.124 26.4436 107.669 26.544C107.263 26.6445 106.757 26.6947 106.149 26.6947C105.592 26.6947 105.086 26.5942 104.63 26.4436C104.174 26.2929 103.769 26.0418 103.465 25.7404C103.161 25.439 102.908 25.0875 102.705 24.6354C102.554 24.2336 102.452 23.7816 102.452 23.2794C102.452 22.7771 102.554 22.3251 102.705 21.9233C102.857 21.5215 103.111 21.1197 103.415 20.8183C103.718 20.517 104.073 20.2658 104.478 20.1151C104.883 19.9645 105.339 19.9142 105.795 19.9142ZM106.96 22.7269C106.96 22.3753 106.858 22.0739 106.656 21.8228C106.453 21.5717 106.149 21.421 105.744 21.421C105.339 21.421 105.035 21.5717 104.833 21.8228C104.63 22.0739 104.478 22.3753 104.478 22.7269H106.96Z" fill="#C5A25D" />
</svg>